<svg width="254" height="194" viewBox="0 0 254 194" fill="none" xmlns="http://www.w3.org/2000/svg">
<mask id="path-1-outside-1" maskUnits="userSpaceOnUse" x="0" y="0" width="254" height="194" fill="black">
<rect fill="white" width="254" height="194"/>
<path fill-rule="evenodd" clip-rule="evenodd" d="M225.083 96.6139L127 14L28.9167 96.6139H28L28.4583 97L28 97.386H28.9167L127 180L225.083 97.386H226L225.542 97L226 96.6139H225.083Z"/>
</mask>
<path fill-rule="evenodd" clip-rule="evenodd" d="M225.083 96.6139L127 14L28.9167 96.6139H28L28.4583 97L28 97.386H28.9167L127 180L225.083 97.386H226L225.542 97L226 96.6139H225.083Z" fill="#EB651C"/>
<path d="M127 14L133.442 6.35156L127 0.92544L120.558 6.35156L127 14ZM225.083 96.6139L218.641 104.262L221.433 106.614H225.083V96.6139ZM28.9167 96.6139V106.614H32.5669L35.3588 104.262L28.9167 96.6139ZM28 96.6139V86.6139H0.604677L21.5579 104.262L28 96.6139ZM28.4583 97L34.9005 104.648L43.9811 97L34.9005 89.3515L28.4583 97ZM28 97.386L21.5578 89.7376L0.604834 107.386H28V97.386ZM28.9167 97.386L35.3588 89.7376L32.567 87.386H28.9167V97.386ZM127 180L120.558 187.648L127 193.075L133.442 187.648L127 180ZM225.083 97.386V87.386H221.433L218.641 89.7376L225.083 97.386ZM226 97.386V107.386H253.395L232.442 89.7376L226 97.386ZM225.542 97L219.1 89.3516L210.019 97L219.1 104.649L225.542 97ZM226 96.6139L232.442 104.262L253.395 86.6139H226V96.6139ZM120.558 21.6484L218.641 104.262L231.525 88.9655L133.442 6.35156L120.558 21.6484ZM35.3588 104.262L133.442 21.6484L120.558 6.35156L22.4745 88.9655L35.3588 104.262ZM28.9167 86.6139H28V106.614H28.9167V86.6139ZM21.5579 104.262L22.0162 104.648L34.9005 89.3515L34.4421 88.9655L21.5579 104.262ZM34.4422 105.034L34.9005 104.648L22.0162 89.3516L21.5578 89.7376L34.4422 105.034ZM28.9167 87.386H28V107.386H28.9167V87.386ZM22.4745 105.034L120.558 187.648L133.442 172.352L35.3588 89.7376L22.4745 105.034ZM133.442 187.648L231.526 105.034L218.641 89.7376L120.558 172.352L133.442 187.648ZM226 87.386H225.083V107.386H226V87.386ZM219.1 104.649L219.558 105.035L232.442 89.7376L231.984 89.3515L219.1 104.649ZM231.984 104.648L232.442 104.262L219.558 88.9655L219.1 89.3516L231.984 104.648ZM226 86.6139H225.083V106.614H226V86.6139Z" fill="#41392E" mask="url(#path-1-outside-1)"/>
<path d="M63.6802 76.2C64.0269 76.2 64.3936 76.1933 64.7802 76.18C65.1669 76.1533 65.5136 76.12 65.8202 76.08C66.0069 76.4533 66.3202 76.9467 66.7602 77.56C67.2136 78.16 67.7336 78.8333 68.3202 79.58C68.9202 80.3133 69.5469 81.0733 70.2002 81.86C70.8536 82.6467 71.4802 83.4133 72.0802 84.16C72.1069 84.0933 72.1202 83.98 72.1202 83.82C72.1202 83.6467 72.1202 83.4933 72.1202 83.36V79.7C72.1202 79.4467 72.1069 79.1467 72.0802 78.8C72.0669 78.44 72.0469 78.1067 72.0202 77.8C71.9936 77.4933 71.9536 77.2933 71.9002 77.2C71.8469 77.08 71.7069 76.9933 71.4802 76.94C71.2536 76.8733 71.0202 76.8333 70.7802 76.82C70.5536 76.7933 70.4002 76.78 70.3202 76.78C70.3069 76.78 70.2869 76.6867 70.2602 76.5C70.2469 76.3 70.2669 76.1533 70.3202 76.06C70.7736 76.0733 71.1669 76.1 71.5002 76.14C71.8469 76.18 72.2469 76.2 72.7002 76.2C73.1269 76.2 73.5469 76.18 73.9602 76.14C74.3736 76.1 74.7736 76.0733 75.1602 76.06C75.1869 76.1133 75.2002 76.2267 75.2002 76.4C75.2136 76.56 75.1869 76.6933 75.1202 76.8C75.0669 76.8 74.9202 76.8067 74.6802 76.82C74.4402 76.8333 74.1936 76.8733 73.9402 76.94C73.7002 76.9933 73.5536 77.0933 73.5002 77.24C73.4736 77.3333 73.4402 77.5267 73.4002 77.82C73.3736 78.1133 73.3536 78.4333 73.3402 78.78C73.3269 79.1133 73.3202 79.4 73.3202 79.64V86.28C73.3202 86.8533 73.3269 87.3267 73.3402 87.7C73.3669 88.0733 73.3869 88.5133 73.4002 89.02C73.3736 89.0467 73.2869 89.0667 73.1402 89.08C73.0069 89.0933 72.9269 89.1 72.9002 89.1C72.8069 89.1 72.7069 89.06 72.6002 88.98C72.5069 88.8867 72.4069 88.7733 72.3002 88.64L64.3402 78.86V85.94C64.3402 86.2867 64.3602 86.6533 64.4002 87.04C64.4536 87.4133 64.5069 87.6733 64.5602 87.82C64.6136 87.94 64.7602 88.04 65.0002 88.12C65.2402 88.2 65.4802 88.26 65.7202 88.3C65.9602 88.3267 66.1069 88.34 66.1602 88.34C66.2269 88.4333 66.2536 88.5667 66.2402 88.74C66.2402 88.9 66.2269 89.0133 66.2002 89.08C65.8136 89.0533 65.4136 89.02 65.0002 88.98C64.5869 88.94 64.1669 88.92 63.7402 88.92C63.2869 88.92 62.8869 88.94 62.5402 88.98C62.2069 89.02 61.8136 89.0533 61.3602 89.08C61.3069 88.9867 61.2869 88.8467 61.3002 88.66C61.3269 88.46 61.3469 88.36 61.3602 88.36C61.4402 88.36 61.5936 88.34 61.8202 88.3C62.0602 88.26 62.2869 88.2067 62.5002 88.14C62.7269 88.06 62.8669 87.96 62.9202 87.84C62.9869 87.6933 63.0402 87.4267 63.0802 87.04C63.1336 86.64 63.1602 86.2533 63.1602 85.88V78.96C63.1602 78.6933 63.1336 78.38 63.0802 78.02C63.0269 77.66 62.9336 77.3867 62.8002 77.2C62.7469 77.1067 62.6269 77.0333 62.4402 76.98C62.2669 76.9267 62.0869 76.8867 61.9002 76.86C61.7269 76.82 61.6002 76.8 61.5202 76.8C61.4936 76.8 61.4669 76.7467 61.4402 76.64C61.4269 76.5333 61.4202 76.42 61.4202 76.3C61.4336 76.18 61.4536 76.1067 61.4802 76.08C61.7869 76.0933 62.1136 76.12 62.4602 76.16C62.8202 76.1867 63.2269 76.2 63.6802 76.2ZM83.0001 75.98C83.8667 75.98 84.6934 76.1533 85.4801 76.5C86.2801 76.8333 86.9867 77.3067 87.6001 77.92C88.2267 78.52 88.7201 79.22 89.0801 80.02C89.4534 80.82 89.6401 81.68 89.6401 82.6C89.6401 83.52 89.4534 84.38 89.0801 85.18C88.7201 85.9667 88.2267 86.6667 87.6001 87.28C86.9867 87.88 86.2801 88.3533 85.4801 88.7C84.6934 89.0333 83.8667 89.2 83.0001 89.2C82.1467 89.2 81.3201 89.0333 80.5201 88.7C79.7201 88.3533 79.0067 87.88 78.3801 87.28C77.7667 86.6667 77.2734 85.9667 76.9001 85.18C76.5401 84.38 76.3601 83.52 76.3601 82.6C76.3601 81.68 76.5401 80.82 76.9001 80.02C77.2734 79.22 77.7667 78.52 78.3801 77.92C79.0067 77.3067 79.7201 76.8333 80.5201 76.5C81.3201 76.1533 82.1467 75.98 83.0001 75.98ZM82.5401 76.82C81.9667 76.82 81.4801 76.9733 81.0801 77.28C80.6934 77.5867 80.3801 77.9933 80.1401 78.5C79.9134 78.9933 79.7467 79.54 79.6401 80.14C79.5334 80.74 79.4801 81.3333 79.4801 81.92C79.4801 82.6667 79.5467 83.42 79.6801 84.18C79.8267 84.9267 80.0534 85.62 80.3601 86.26C80.6667 86.8867 81.0667 87.3933 81.5601 87.78C82.0667 88.1667 82.6867 88.36 83.4201 88.36C84.0067 88.36 84.4934 88.2133 84.8801 87.92C85.2801 87.6133 85.6001 87.2133 85.8401 86.72C86.0801 86.2267 86.2534 85.68 86.3601 85.08C86.4667 84.48 86.5201 83.8867 86.5201 83.3C86.5201 82.5533 86.4467 81.8 86.3001 81.04C86.1667 80.28 85.9401 79.58 85.6201 78.94C85.3134 78.3 84.9067 77.7867 84.4001 77.4C83.8934 77.0133 83.2734 76.82 82.5401 76.82ZM95.8938 75.92C96.4805 75.92 97.0205 75.98 97.5138 76.1C98.0205 76.2067 98.5738 76.3267 99.1738 76.46C99.2272 76.98 99.2672 77.5 99.2938 78.02C99.3338 78.54 99.3672 79.1 99.3938 79.7C99.3405 79.78 99.2672 79.82 99.1738 79.82C99.1738 79.82 99.1672 79.82 99.1538 79.82C99.1005 79.82 98.9938 79.82 98.8338 79.82C98.6872 79.8067 98.6072 79.76 98.5938 79.68C98.5538 79.4 98.4672 79.0933 98.3338 78.76C98.2005 78.4267 98.0205 78.1067 97.7938 77.8C97.5672 77.4933 97.3005 77.24 96.9938 77.04C96.7005 76.84 96.3672 76.74 95.9938 76.74C95.7405 76.74 95.4872 76.7933 95.2338 76.9C94.9805 76.9933 94.7672 77.1667 94.5938 77.42C94.4205 77.66 94.3338 78 94.3338 78.44C94.3338 78.84 94.4872 79.2333 94.7938 79.62C95.1005 79.9933 95.4672 80.3467 95.8938 80.68C96.3338 81 96.7538 81.2933 97.1538 81.56C97.5805 81.84 98.0138 82.1467 98.4538 82.48C98.9072 82.8 99.2805 83.2067 99.5738 83.7C99.8805 84.18 100.034 84.8067 100.034 85.58C100.034 86.2867 99.8272 86.9133 99.4138 87.46C99.0005 88.0067 98.4672 88.4333 97.8138 88.74C97.1738 89.0467 96.4938 89.2 95.7738 89.2C95.2005 89.2 94.5805 89.1467 93.9138 89.04C93.2605 88.9333 92.6405 88.8133 92.0538 88.68C91.9872 88.3867 91.9205 88.0133 91.8538 87.56C91.7872 87.1067 91.7272 86.6733 91.6738 86.26C91.6338 85.8333 91.6072 85.5333 91.5938 85.36C91.6338 85.2933 91.7205 85.2333 91.8538 85.18C92.0005 85.1267 92.1005 85.1 92.1538 85.1C92.3138 85.1 92.4005 85.1467 92.4138 85.24C92.4538 85.5067 92.5605 85.82 92.7338 86.18C92.9072 86.5267 93.1272 86.8733 93.3938 87.22C93.6738 87.5533 93.9938 87.8333 94.3538 88.06C94.7272 88.2733 95.1338 88.38 95.5738 88.38C96.0805 88.38 96.5205 88.24 96.8938 87.96C97.2805 87.6667 97.4738 87.1733 97.4738 86.48C97.4738 86.1333 97.3672 85.8067 97.1538 85.5C96.9538 85.18 96.7005 84.8867 96.3938 84.62C96.0872 84.3533 95.7672 84.1067 95.4338 83.88C95.1005 83.6533 94.8138 83.46 94.5738 83.3C94.1072 82.98 93.6538 82.6533 93.2138 82.32C92.7738 81.9867 92.4138 81.5933 92.1338 81.14C91.8672 80.6867 91.7338 80.12 91.7338 79.44C91.7338 78.76 91.9405 78.16 92.3538 77.64C92.7672 77.1067 93.2938 76.6867 93.9338 76.38C94.5738 76.0733 95.2272 75.92 95.8938 75.92ZM109.01 86.38L113.17 76.82C113.237 76.6867 113.343 76.5333 113.49 76.36C113.65 76.1733 113.783 76.08 113.89 76.08C114.117 76.08 114.257 76.12 114.31 76.2L118.31 86.1C118.443 86.3933 118.543 86.6533 118.61 86.88C118.677 87.0933 118.757 87.3067 118.85 87.52C118.97 87.7867 119.137 87.98 119.35 88.1C119.577 88.22 119.79 88.2933 119.99 88.32C120.203 88.3467 120.337 88.36 120.39 88.36C120.443 88.4533 120.47 88.5867 120.47 88.76C120.483 88.9333 120.47 89.04 120.43 89.08C120.043 89.0533 119.617 89.02 119.15 88.98C118.683 88.94 118.237 88.92 117.81 88.92C117.517 88.92 117.183 88.9333 116.81 88.96C116.437 88.9733 116.077 88.9933 115.73 89.02C115.397 89.0467 115.11 89.0667 114.87 89.08C114.843 89.04 114.823 88.9667 114.81 88.86C114.797 88.74 114.797 88.6267 114.81 88.52C114.823 88.4133 114.843 88.36 114.87 88.36C115.043 88.36 115.243 88.3333 115.47 88.28C115.71 88.2133 115.897 88.12 116.03 88C116.137 87.9067 116.19 87.8 116.19 87.68C116.19 87.64 116.15 87.52 116.07 87.32C115.99 87.1067 115.89 86.8533 115.77 86.56C115.663 86.2667 115.55 85.98 115.43 85.7C115.323 85.4067 115.23 85.1667 115.15 84.98C115.07 84.7933 115.03 84.7 115.03 84.7C115.03 84.7 115.01 84.6867 114.97 84.66C114.943 84.6333 114.917 84.62 114.89 84.62C114.61 84.6067 114.337 84.6 114.07 84.6C113.817 84.6 113.583 84.6 113.37 84.6C113.303 84.6 113.237 84.6 113.17 84.6C113.117 84.6 113.063 84.6 113.01 84.6C112.61 84.6 112.257 84.6 111.95 84.6C111.657 84.6 111.337 84.6067 110.99 84.62C110.937 84.62 110.89 84.6533 110.85 84.72C110.85 84.72 110.803 84.82 110.71 85.02C110.63 85.22 110.537 85.4467 110.43 85.7C110.323 85.9533 110.23 86.1733 110.15 86.36C110.057 86.6 109.957 86.8667 109.85 87.16C109.757 87.4533 109.71 87.6333 109.71 87.7C109.71 87.86 109.823 87.9933 110.05 88.1C110.277 88.1933 110.51 88.26 110.75 88.3C111.003 88.34 111.157 88.36 111.21 88.36C111.277 88.4267 111.303 88.5533 111.29 88.74C111.277 88.9267 111.257 89.04 111.23 89.08C110.897 89.04 110.57 89.0067 110.25 88.98C109.93 88.94 109.557 88.92 109.13 88.92C108.677 88.92 108.29 88.94 107.97 88.98C107.663 89.0067 107.337 89.04 106.99 89.08C106.95 89.04 106.923 88.94 106.91 88.78C106.897 88.62 106.91 88.4867 106.95 88.38C107.03 88.38 107.163 88.3533 107.35 88.3C107.55 88.2333 107.743 88.1533 107.93 88.06C108.13 87.9667 108.263 87.8667 108.33 87.76C108.503 87.4933 108.63 87.2667 108.71 87.08C108.79 86.88 108.89 86.6467 109.01 86.38ZM112.93 79.7L111.27 83.54C111.27 83.54 111.27 83.5533 111.27 83.58C111.283 83.5933 111.297 83.6 111.31 83.6C111.51 83.6133 111.777 83.6267 112.11 83.64C112.443 83.6533 112.717 83.66 112.93 83.66C113.237 83.66 113.497 83.66 113.71 83.66C113.937 83.6467 114.197 83.6333 114.49 83.62C114.517 83.62 114.53 83.6067 114.53 83.58C114.543 83.5533 114.55 83.54 114.55 83.54L112.93 79.7ZM123.944 76.18C124.277 76.18 124.604 76.1667 124.924 76.14C125.257 76.1133 125.617 76.0933 126.004 76.08C126.15 76.3867 126.35 76.8333 126.604 77.42C126.87 78.0067 127.17 78.68 127.504 79.44C127.837 80.2 128.19 81.0067 128.564 81.86C128.95 82.7 129.324 83.5333 129.684 84.36C129.684 84.36 129.69 84.3667 129.704 84.38C129.73 84.3933 129.75 84.4 129.764 84.4C129.777 84.4 129.79 84.3867 129.804 84.36C129.83 84.32 129.844 84.2933 129.844 84.28C129.844 84.28 129.924 84.0867 130.084 83.7C130.244 83.3 130.444 82.7933 130.684 82.18C130.924 81.5667 131.17 80.92 131.424 80.24C131.69 79.56 131.93 78.9267 132.144 78.34C132.25 78.06 132.35 77.7533 132.444 77.42C132.55 77.0733 132.637 76.7733 132.704 76.52C132.77 76.2667 132.804 76.14 132.804 76.14C132.87 76.14 133.044 76.1467 133.324 76.16C133.617 76.1733 133.924 76.1867 134.244 76.2C134.564 76.2 134.784 76.2 134.904 76.2C135.237 76.2 135.604 76.1867 136.004 76.16C136.404 76.12 136.797 76.0933 137.184 76.08C137.224 76.12 137.257 76.2333 137.284 76.42C137.324 76.6067 137.317 76.74 137.264 76.82C137.184 76.82 137.017 76.84 136.764 76.88C136.524 76.9067 136.35 76.9533 136.244 77.02C136.15 77.0867 136.077 77.1733 136.024 77.28C135.984 77.3733 135.97 77.5533 135.984 77.82C135.997 78.1533 136.01 78.6533 136.024 79.32C136.05 79.9733 136.077 80.7 136.104 81.5C136.13 82.3 136.157 83.1 136.184 83.9C136.21 84.7 136.237 85.4133 136.264 86.04C136.29 86.4133 136.317 86.7733 136.344 87.12C136.37 87.4533 136.43 87.7467 136.524 88C136.564 88.0933 136.67 88.1667 136.844 88.22C137.03 88.2733 137.217 88.3133 137.404 88.34C137.59 88.3533 137.71 88.36 137.764 88.36C137.87 88.5867 137.884 88.8267 137.804 89.08C137.417 89.0533 136.984 89.02 136.504 88.98C136.024 88.94 135.57 88.92 135.144 88.92C134.69 88.92 134.177 88.94 133.604 88.98C133.03 89.02 132.517 89.0533 132.064 89.08C132.024 89.04 131.997 88.9333 131.984 88.76C131.984 88.5733 131.997 88.44 132.024 88.36C132.104 88.36 132.244 88.3467 132.444 88.32C132.644 88.2933 132.837 88.2533 133.024 88.2C133.224 88.1467 133.35 88.0733 133.404 87.98C133.457 87.9 133.497 87.7933 133.524 87.66C133.55 87.5133 133.564 87.3933 133.564 87.3C133.564 87.1933 133.564 87.0133 133.564 86.76C133.564 86.4933 133.557 86.2733 133.544 86.1L133.344 79.3C133.344 79.2733 133.337 79.18 133.324 79.02C133.31 78.86 133.27 78.78 133.204 78.78C133.177 78.78 133.144 78.8267 133.104 78.92L129.664 88.22C129.65 88.2733 129.597 88.3667 129.504 88.5C129.41 88.6333 129.304 88.76 129.184 88.88C129.064 88.9867 128.944 89.04 128.824 89.04C128.784 89.04 128.724 89.0267 128.644 89L124.304 78.78C124.277 79.5933 124.25 80.2867 124.224 80.86C124.21 81.42 124.197 81.9133 124.184 82.34C124.17 82.7533 124.157 83.1533 124.144 83.54C124.13 83.9267 124.117 84.3467 124.104 84.8C124.09 85.24 124.07 85.7667 124.044 86.38C124.03 86.5933 124.037 86.86 124.064 87.18C124.09 87.4867 124.11 87.6733 124.124 87.74C124.15 87.8467 124.244 87.94 124.404 88.02C124.564 88.1 124.744 88.1667 124.944 88.22C125.157 88.26 125.344 88.2933 125.504 88.32C125.677 88.3467 125.784 88.36 125.824 88.36C125.85 88.4267 125.87 88.54 125.884 88.7C125.897 88.8467 125.89 88.9733 125.864 89.08C125.477 89.0533 125.084 89.02 124.684 88.98C124.284 88.94 123.87 88.92 123.444 88.92C122.99 88.92 122.584 88.94 122.224 88.98C121.864 89.02 121.457 89.0533 121.004 89.08C120.964 89.0133 120.944 88.9067 120.944 88.76C120.944 88.6 120.957 88.4733 120.984 88.38C121.064 88.38 121.224 88.36 121.464 88.32C121.704 88.2667 121.944 88.1867 122.184 88.08C122.424 87.9733 122.577 87.84 122.644 87.68C122.67 87.6133 122.697 87.4667 122.724 87.24C122.764 87 122.797 86.7533 122.824 86.5C122.85 86.2467 122.864 86.0667 122.864 85.96C122.89 85.5067 122.917 84.96 122.944 84.32C122.97 83.68 122.997 83.0133 123.024 82.32C123.05 81.6267 123.077 80.96 123.104 80.32C123.13 79.68 123.15 79.1267 123.164 78.66C123.177 78.18 123.19 77.8467 123.204 77.66C123.204 77.5933 123.197 77.52 123.184 77.44C123.184 77.36 123.157 77.2867 123.104 77.22C123.024 77.1133 122.837 77.02 122.544 76.94C122.25 76.8467 122.017 76.8 121.844 76.8C121.79 76.72 121.77 76.5867 121.784 76.4C121.81 76.2 121.83 76.0933 121.844 76.08C122.15 76.0933 122.397 76.1067 122.584 76.12C122.784 76.1333 122.984 76.1467 123.184 76.16C123.397 76.1733 123.65 76.18 123.944 76.18ZM142.089 76.2C142.502 76.2 142.969 76.1933 143.489 76.18C144.022 76.1533 144.475 76.12 144.849 76.08C144.889 76.1333 144.909 76.2533 144.909 76.44C144.922 76.6133 144.902 76.7333 144.849 76.8C144.769 76.8 144.629 76.8133 144.429 76.84C144.242 76.8533 144.062 76.8867 143.889 76.94C143.729 76.98 143.629 77.0467 143.589 77.14C143.522 77.3133 143.482 77.5333 143.469 77.8C143.455 78.0667 143.449 78.3733 143.449 78.72C143.449 78.76 143.449 78.8067 143.449 78.86C143.449 78.9 143.449 78.94 143.449 78.98V86.16C143.449 86.2 143.449 86.2467 143.449 86.3C143.449 86.34 143.449 86.38 143.449 86.42C143.449 86.7667 143.455 87.0733 143.469 87.34C143.482 87.6067 143.522 87.8267 143.589 88C143.629 88.08 143.729 88.1467 143.889 88.2C144.062 88.2533 144.242 88.2933 144.429 88.32C144.629 88.3333 144.769 88.3467 144.849 88.36C144.902 88.4267 144.922 88.5467 144.909 88.72C144.909 88.8933 144.889 89.0133 144.849 89.08C144.475 89.04 144.015 89.0067 143.469 88.98C142.935 88.9533 142.462 88.94 142.049 88.94C141.635 88.94 141.169 88.9533 140.649 88.98C140.129 89.0067 139.675 89.04 139.289 89.08C139.249 89.0133 139.222 88.8933 139.209 88.72C139.209 88.5467 139.235 88.4267 139.289 88.36C139.382 88.3467 139.522 88.3333 139.709 88.32C139.895 88.2933 140.075 88.2533 140.249 88.2C140.422 88.1467 140.522 88.08 140.549 88C140.629 87.8 140.675 87.5467 140.689 87.24C140.702 86.9333 140.709 86.5733 140.709 86.16V78.98C140.709 78.5533 140.702 78.1933 140.689 77.9C140.675 77.5933 140.629 77.34 140.549 77.14C140.522 77.0467 140.422 76.98 140.249 76.94C140.075 76.8867 139.895 76.8533 139.709 76.84C139.522 76.8133 139.382 76.8 139.289 76.8C139.235 76.7333 139.209 76.6133 139.209 76.44C139.222 76.2533 139.249 76.1333 139.289 76.08C139.675 76.12 140.135 76.1533 140.669 76.18C141.202 76.1933 141.675 76.2 142.089 76.2ZM151.031 75.92C151.617 75.92 152.157 75.98 152.651 76.1C153.157 76.2067 153.711 76.3267 154.311 76.46C154.364 76.98 154.404 77.5 154.431 78.02C154.471 78.54 154.504 79.1 154.531 79.7C154.477 79.78 154.404 79.82 154.311 79.82C154.311 79.82 154.304 79.82 154.291 79.82C154.237 79.82 154.131 79.82 153.971 79.82C153.824 79.8067 153.744 79.76 153.731 79.68C153.691 79.4 153.604 79.0933 153.471 78.76C153.337 78.4267 153.157 78.1067 152.931 77.8C152.704 77.4933 152.437 77.24 152.131 77.04C151.837 76.84 151.504 76.74 151.131 76.74C150.877 76.74 150.624 76.7933 150.371 76.9C150.117 76.9933 149.904 77.1667 149.731 77.42C149.557 77.66 149.471 78 149.471 78.44C149.471 78.84 149.624 79.2333 149.931 79.62C150.237 79.9933 150.604 80.3467 151.031 80.68C151.471 81 151.891 81.2933 152.291 81.56C152.717 81.84 153.151 82.1467 153.591 82.48C154.044 82.8 154.417 83.2067 154.711 83.7C155.017 84.18 155.171 84.8067 155.171 85.58C155.171 86.2867 154.964 86.9133 154.551 87.46C154.137 88.0067 153.604 88.4333 152.951 88.74C152.311 89.0467 151.631 89.2 150.911 89.2C150.337 89.2 149.717 89.1467 149.051 89.04C148.397 88.9333 147.777 88.8133 147.191 88.68C147.124 88.3867 147.057 88.0133 146.991 87.56C146.924 87.1067 146.864 86.6733 146.811 86.26C146.771 85.8333 146.744 85.5333 146.731 85.36C146.771 85.2933 146.857 85.2333 146.991 85.18C147.137 85.1267 147.237 85.1 147.291 85.1C147.451 85.1 147.537 85.1467 147.551 85.24C147.591 85.5067 147.697 85.82 147.871 86.18C148.044 86.5267 148.264 86.8733 148.531 87.22C148.811 87.5533 149.131 87.8333 149.491 88.06C149.864 88.2733 150.271 88.38 150.711 88.38C151.217 88.38 151.657 88.24 152.031 87.96C152.417 87.6667 152.611 87.1733 152.611 86.48C152.611 86.1333 152.504 85.8067 152.291 85.5C152.091 85.18 151.837 84.8867 151.531 84.62C151.224 84.3533 150.904 84.1067 150.571 83.88C150.237 83.6533 149.951 83.46 149.711 83.3C149.244 82.98 148.791 82.6533 148.351 82.32C147.911 81.9867 147.551 81.5933 147.271 81.14C147.004 80.6867 146.871 80.12 146.871 79.44C146.871 78.76 147.077 78.16 147.491 77.64C147.904 77.1067 148.431 76.6867 149.071 76.38C149.711 76.0733 150.364 75.92 151.031 75.92ZM167.207 86.24C167.207 86.24 167.207 86.2533 167.207 86.28C167.207 86.3467 167.207 86.48 167.207 86.68C167.207 86.8667 167.213 87.0667 167.227 87.28C167.253 87.4933 167.293 87.66 167.347 87.78C167.413 87.9133 167.58 88.0133 167.847 88.08C168.113 88.1467 168.373 88.18 168.627 88.18H169.907C170.28 88.18 170.62 88.1267 170.927 88.02C171.247 87.9133 171.513 87.7533 171.727 87.54C171.94 87.3267 172.127 87.0733 172.287 86.78C172.447 86.4867 172.613 86.12 172.787 85.68C172.813 85.6 172.9 85.56 173.047 85.56C173.153 85.56 173.273 85.5733 173.407 85.6C173.54 85.6267 173.62 85.6533 173.647 85.68C173.527 86.0267 173.393 86.4067 173.247 86.82C173.1 87.2333 172.967 87.6333 172.847 88.02C172.727 88.4067 172.64 88.7467 172.587 89.04H165.847C165.153 89.04 164.547 89.04 164.027 89.04C163.507 89.0533 163.18 89.06 163.047 89.06C163.007 88.9933 162.98 88.8733 162.967 88.7C162.967 88.5267 162.993 88.4067 163.047 88.34C163.14 88.3267 163.28 88.3133 163.467 88.3C163.653 88.2733 163.833 88.24 164.007 88.2C164.18 88.1467 164.28 88.08 164.307 88C164.387 87.8 164.433 87.5467 164.447 87.24C164.46 86.9333 164.467 86.5733 164.467 86.16V78.98C164.467 78.5533 164.46 78.1933 164.447 77.9C164.433 77.5933 164.387 77.34 164.307 77.14C164.28 77.0467 164.18 76.98 164.007 76.94C163.833 76.8867 163.653 76.8533 163.467 76.84C163.28 76.8133 163.14 76.8 163.047 76.8C162.993 76.7333 162.967 76.6133 162.967 76.44C162.98 76.2533 163.007 76.1333 163.047 76.08C163.433 76.12 163.893 76.1533 164.427 76.18C164.96 76.1933 165.433 76.2 165.847 76.2C166.26 76.2 166.727 76.1933 167.247 76.18C167.78 76.1533 168.233 76.12 168.607 76.08C168.647 76.1333 168.667 76.2533 168.667 76.44C168.68 76.6133 168.66 76.7333 168.607 76.8C168.527 76.8 168.387 76.8133 168.187 76.84C168 76.8533 167.82 76.8867 167.647 76.94C167.487 76.98 167.387 77.0467 167.347 77.14C167.28 77.3133 167.24 77.5333 167.227 77.8C167.213 78.0667 167.207 78.3733 167.207 78.72C167.207 78.76 167.207 78.8067 167.207 78.86C167.207 78.9 167.207 78.94 167.207 78.98V86.24ZM177.405 76.16C177.565 76.16 177.845 76.16 178.245 76.16C178.659 76.1467 179.125 76.1333 179.645 76.12C180.179 76.1067 180.719 76.1 181.265 76.1C181.812 76.0867 182.305 76.0733 182.745 76.06C183.199 76.0467 183.539 76.04 183.765 76.04C183.832 76.5333 183.919 77.0267 184.025 77.52C184.132 78.0133 184.232 78.48 184.325 78.92C184.299 78.9467 184.232 78.9733 184.125 79C184.019 79.0133 183.932 79.02 183.865 79.02C183.705 79.02 183.605 78.9667 183.565 78.86C183.352 78.3133 183.092 77.8533 182.785 77.48C182.492 77.0933 182.045 76.9 181.445 76.9H179.825C179.612 76.9 179.405 76.9133 179.205 76.94C179.019 76.9533 178.899 77.0133 178.845 77.12C178.805 77.2267 178.779 77.36 178.765 77.52C178.765 77.68 178.765 77.8667 178.765 78.08C178.765 78.12 178.765 78.16 178.765 78.2C178.765 78.24 178.765 78.28 178.765 78.32V81.82C178.765 81.8733 178.852 81.92 179.025 81.96C179.199 82 179.392 82.02 179.605 82.02H180.625C181.012 82.02 181.305 81.9867 181.505 81.92C181.719 81.8533 181.885 81.72 182.005 81.52C182.125 81.32 182.239 81.0333 182.345 80.66C182.372 80.5533 182.452 80.5 182.585 80.5C182.759 80.5 182.879 80.5333 182.945 80.6V84.36C182.932 84.3733 182.885 84.3867 182.805 84.4C182.739 84.4133 182.672 84.42 182.605 84.42C182.432 84.42 182.339 84.3733 182.325 84.28C182.205 83.8133 182.085 83.5067 181.965 83.36C181.845 83.2133 181.739 83.12 181.645 83.08C181.419 82.9867 180.925 82.94 180.165 82.94C179.992 82.94 179.792 82.9467 179.565 82.96C179.352 82.9733 179.165 83 179.005 83.04C178.845 83.08 178.765 83.14 178.765 83.22V86.24C178.765 86.24 178.765 86.2533 178.765 86.28C178.765 86.3467 178.765 86.48 178.765 86.68C178.765 86.8667 178.772 87.0667 178.785 87.28C178.812 87.4933 178.852 87.66 178.905 87.78C178.972 87.9133 179.139 88.0133 179.405 88.08C179.672 88.1467 179.932 88.18 180.185 88.18H181.465C181.839 88.18 182.179 88.1267 182.485 88.02C182.805 87.9133 183.072 87.7533 183.285 87.54C183.499 87.3267 183.685 87.0733 183.845 86.78C184.005 86.4867 184.172 86.12 184.345 85.68C184.372 85.6 184.459 85.56 184.605 85.56C184.712 85.56 184.832 85.5733 184.965 85.6C185.099 85.6267 185.179 85.6533 185.205 85.68C185.085 86.0267 184.952 86.4067 184.805 86.82C184.659 87.2333 184.525 87.6333 184.405 88.02C184.285 88.4067 184.199 88.7467 184.145 89.04C184.012 89.04 183.705 89.04 183.225 89.04C182.745 89.04 182.165 89.04 181.485 89.04C180.805 89.04 180.092 89.04 179.345 89.04C178.612 89.04 177.905 89.04 177.225 89.04C176.559 89.04 175.985 89.04 175.505 89.04C175.039 89.0533 174.739 89.06 174.605 89.06C174.565 88.9933 174.539 88.8733 174.525 88.7C174.525 88.5267 174.552 88.4067 174.605 88.34C174.699 88.3267 174.839 88.3133 175.025 88.3C175.212 88.2733 175.392 88.24 175.565 88.2C175.739 88.1467 175.839 88.08 175.865 88C175.945 87.8 175.992 87.5467 176.005 87.24C176.019 86.9333 176.025 86.5733 176.025 86.16V78.98C176.025 78.5533 176.019 78.1933 176.005 77.9C175.992 77.5933 175.945 77.34 175.865 77.14C175.839 77.0467 175.739 76.98 175.565 76.94C175.392 76.9 175.212 76.8733 175.025 76.86C174.839 76.8467 174.699 76.84 174.605 76.84C174.552 76.7733 174.525 76.6467 174.525 76.46C174.539 76.2733 174.565 76.1533 174.605 76.1C175.045 76.1267 175.519 76.1467 176.025 76.16C176.532 76.16 176.992 76.16 177.405 76.16ZM191.074 75.92C191.66 75.92 192.2 75.98 192.694 76.1C193.2 76.2067 193.754 76.3267 194.354 76.46C194.407 76.98 194.447 77.5 194.474 78.02C194.514 78.54 194.547 79.1 194.574 79.7C194.52 79.78 194.447 79.82 194.354 79.82C194.354 79.82 194.347 79.82 194.334 79.82C194.28 79.82 194.174 79.82 194.014 79.82C193.867 79.8067 193.787 79.76 193.774 79.68C193.734 79.4 193.647 79.0933 193.514 78.76C193.38 78.4267 193.2 78.1067 192.974 77.8C192.747 77.4933 192.48 77.24 192.174 77.04C191.88 76.84 191.547 76.74 191.174 76.74C190.92 76.74 190.667 76.7933 190.414 76.9C190.16 76.9933 189.947 77.1667 189.774 77.42C189.6 77.66 189.514 78 189.514 78.44C189.514 78.84 189.667 79.2333 189.974 79.62C190.28 79.9933 190.647 80.3467 191.074 80.68C191.514 81 191.934 81.2933 192.334 81.56C192.76 81.84 193.194 82.1467 193.634 82.48C194.087 82.8 194.46 83.2067 194.754 83.7C195.06 84.18 195.214 84.8067 195.214 85.58C195.214 86.2867 195.007 86.9133 194.594 87.46C194.18 88.0067 193.647 88.4333 192.994 88.74C192.354 89.0467 191.674 89.2 190.954 89.2C190.38 89.2 189.76 89.1467 189.094 89.04C188.44 88.9333 187.82 88.8133 187.234 88.68C187.167 88.3867 187.1 88.0133 187.034 87.56C186.967 87.1067 186.907 86.6733 186.854 86.26C186.814 85.8333 186.787 85.5333 186.774 85.36C186.814 85.2933 186.9 85.2333 187.034 85.18C187.18 85.1267 187.28 85.1 187.334 85.1C187.494 85.1 187.58 85.1467 187.594 85.24C187.634 85.5067 187.74 85.82 187.914 86.18C188.087 86.5267 188.307 86.8733 188.574 87.22C188.854 87.5533 189.174 87.8333 189.534 88.06C189.907 88.2733 190.314 88.38 190.754 88.38C191.26 88.38 191.7 88.24 192.074 87.96C192.46 87.6667 192.654 87.1733 192.654 86.48C192.654 86.1333 192.547 85.8067 192.334 85.5C192.134 85.18 191.88 84.8867 191.574 84.62C191.267 84.3533 190.947 84.1067 190.614 83.88C190.28 83.6533 189.994 83.46 189.754 83.3C189.287 82.98 188.834 82.6533 188.394 82.32C187.954 81.9867 187.594 81.5933 187.314 81.14C187.047 80.6867 186.914 80.12 186.914 79.44C186.914 78.76 187.12 78.16 187.534 77.64C187.947 77.1067 188.474 76.6867 189.114 76.38C189.754 76.0733 190.407 75.92 191.074 75.92ZM83.0568 121.38L87.2168 111.82C87.2835 111.687 87.3901 111.533 87.5368 111.36C87.6968 111.173 87.8301 111.08 87.9368 111.08C88.1635 111.08 88.3035 111.12 88.3568 111.2L92.3568 121.1C92.4901 121.393 92.5901 121.653 92.6568 121.88C92.7235 122.093 92.8035 122.307 92.8968 122.52C93.0168 122.787 93.1835 122.98 93.3968 123.1C93.6235 123.22 93.8368 123.293 94.0368 123.32C94.2501 123.347 94.3835 123.36 94.4368 123.36C94.4901 123.453 94.5168 123.587 94.5168 123.76C94.5301 123.933 94.5168 124.04 94.4768 124.08C94.0901 124.053 93.6635 124.02 93.1968 123.98C92.7301 123.94 92.2835 123.92 91.8568 123.92C91.5635 123.92 91.2301 123.933 90.8568 123.96C90.4835 123.973 90.1235 123.993 89.7768 124.02C89.4435 124.047 89.1568 124.067 88.9168 124.08C88.8901 124.04 88.8701 123.967 88.8568 123.86C88.8435 123.74 88.8435 123.627 88.8568 123.52C88.8701 123.413 88.8901 123.36 88.9168 123.36C89.0901 123.36 89.2901 123.333 89.5168 123.28C89.7568 123.213 89.9435 123.12 90.0768 123C90.1835 122.907 90.2368 122.8 90.2368 122.68C90.2368 122.64 90.1968 122.52 90.1168 122.32C90.0368 122.107 89.9368 121.853 89.8168 121.56C89.7101 121.267 89.5968 120.98 89.4768 120.7C89.3701 120.407 89.2768 120.167 89.1968 119.98C89.1168 119.793 89.0768 119.7 89.0768 119.7C89.0768 119.7 89.0568 119.687 89.0168 119.66C88.9901 119.633 88.9635 119.62 88.9368 119.62C88.6568 119.607 88.3835 119.6 88.1168 119.6C87.8635 119.6 87.6301 119.6 87.4168 119.6C87.3501 119.6 87.2835 119.6 87.2168 119.6C87.1635 119.6 87.1101 119.6 87.0568 119.6C86.6568 119.6 86.3035 119.6 85.9968 119.6C85.7035 119.6 85.3835 119.607 85.0368 119.62C84.9835 119.62 84.9368 119.653 84.8968 119.72C84.8968 119.72 84.8501 119.82 84.7568 120.02C84.6768 120.22 84.5835 120.447 84.4768 120.7C84.3701 120.953 84.2768 121.173 84.1968 121.36C84.1035 121.6 84.0035 121.867 83.8968 122.16C83.8035 122.453 83.7568 122.633 83.7568 122.7C83.7568 122.86 83.8701 122.993 84.0968 123.1C84.3235 123.193 84.5568 123.26 84.7968 123.3C85.0501 123.34 85.2035 123.36 85.2568 123.36C85.3235 123.427 85.3501 123.553 85.3368 123.74C85.3235 123.927 85.3035 124.04 85.2768 124.08C84.9435 124.04 84.6168 124.007 84.2968 123.98C83.9768 123.94 83.6035 123.92 83.1768 123.92C82.7235 123.92 82.3368 123.94 82.0168 123.98C81.7101 124.007 81.3835 124.04 81.0368 124.08C80.9968 124.04 80.9701 123.94 80.9568 123.78C80.9435 123.62 80.9568 123.487 80.9968 123.38C81.0768 123.38 81.2101 123.353 81.3968 123.3C81.5968 123.233 81.7901 123.153 81.9768 123.06C82.1768 122.967 82.3101 122.867 82.3768 122.76C82.5501 122.493 82.6768 122.267 82.7568 122.08C82.8368 121.88 82.9368 121.647 83.0568 121.38ZM86.9768 114.7L85.3168 118.54C85.3168 118.54 85.3168 118.553 85.3168 118.58C85.3301 118.593 85.3435 118.6 85.3568 118.6C85.5568 118.613 85.8235 118.627 86.1568 118.64C86.4901 118.653 86.7635 118.66 86.9768 118.66C87.2835 118.66 87.5435 118.66 87.7568 118.66C87.9835 118.647 88.2435 118.633 88.5368 118.62C88.5635 118.62 88.5768 118.607 88.5768 118.58C88.5901 118.553 88.5968 118.54 88.5968 118.54L86.9768 114.7ZM97.5904 111.2C97.9371 111.2 98.3037 111.193 98.6904 111.18C99.0771 111.153 99.4237 111.12 99.7304 111.08C99.9171 111.453 100.23 111.947 100.67 112.56C101.124 113.16 101.644 113.833 102.23 114.58C102.83 115.313 103.457 116.073 104.11 116.86C104.764 117.647 105.39 118.413 105.99 119.16C106.017 119.093 106.03 118.98 106.03 118.82C106.03 118.647 106.03 118.493 106.03 118.36V114.7C106.03 114.447 106.017 114.147 105.99 113.8C105.977 113.44 105.957 113.107 105.93 112.8C105.904 112.493 105.864 112.293 105.81 112.2C105.757 112.08 105.617 111.993 105.39 111.94C105.164 111.873 104.93 111.833 104.69 111.82C104.464 111.793 104.31 111.78 104.23 111.78C104.217 111.78 104.197 111.687 104.17 111.5C104.157 111.3 104.177 111.153 104.23 111.06C104.684 111.073 105.077 111.1 105.41 111.14C105.757 111.18 106.157 111.2 106.61 111.2C107.037 111.2 107.457 111.18 107.87 111.14C108.284 111.1 108.684 111.073 109.07 111.06C109.097 111.113 109.11 111.227 109.11 111.4C109.124 111.56 109.097 111.693 109.03 111.8C108.977 111.8 108.83 111.807 108.59 111.82C108.35 111.833 108.104 111.873 107.85 111.94C107.61 111.993 107.464 112.093 107.41 112.24C107.384 112.333 107.35 112.527 107.31 112.82C107.284 113.113 107.264 113.433 107.25 113.78C107.237 114.113 107.23 114.4 107.23 114.64V121.28C107.23 121.853 107.237 122.327 107.25 122.7C107.277 123.073 107.297 123.513 107.31 124.02C107.284 124.047 107.197 124.067 107.05 124.08C106.917 124.093 106.837 124.1 106.81 124.1C106.717 124.1 106.617 124.06 106.51 123.98C106.417 123.887 106.317 123.773 106.21 123.64L98.2504 113.86V120.94C98.2504 121.287 98.2704 121.653 98.3104 122.04C98.3637 122.413 98.4171 122.673 98.4704 122.82C98.5237 122.94 98.6704 123.04 98.9104 123.12C99.1504 123.2 99.3904 123.26 99.6304 123.3C99.8704 123.327 100.017 123.34 100.07 123.34C100.137 123.433 100.164 123.567 100.15 123.74C100.15 123.9 100.137 124.013 100.11 124.08C99.7237 124.053 99.3237 124.02 98.9104 123.98C98.4971 123.94 98.0771 123.92 97.6504 123.92C97.1971 123.92 96.7971 123.94 96.4504 123.98C96.1171 124.02 95.7237 124.053 95.2704 124.08C95.2171 123.987 95.1971 123.847 95.2104 123.66C95.2371 123.46 95.2571 123.36 95.2704 123.36C95.3504 123.36 95.5037 123.34 95.7304 123.3C95.9704 123.26 96.1971 123.207 96.4104 123.14C96.6371 123.06 96.7771 122.96 96.8304 122.84C96.8971 122.693 96.9504 122.427 96.9904 122.04C97.0437 121.64 97.0704 121.253 97.0704 120.88V113.96C97.0704 113.693 97.0437 113.38 96.9904 113.02C96.9371 112.66 96.8437 112.387 96.7104 112.2C96.6571 112.107 96.5371 112.033 96.3504 111.98C96.1771 111.927 95.9971 111.887 95.8104 111.86C95.6371 111.82 95.5104 111.8 95.4304 111.8C95.4037 111.8 95.3771 111.747 95.3504 111.64C95.3371 111.533 95.3304 111.42 95.3304 111.3C95.3437 111.18 95.3637 111.107 95.3904 111.08C95.6971 111.093 96.0237 111.12 96.3704 111.16C96.7304 111.187 97.1371 111.2 97.5904 111.2ZM113.284 111.2C113.697 111.2 114.164 111.193 114.684 111.18C115.217 111.153 115.671 111.12 116.044 111.08C116.084 111.133 116.104 111.253 116.104 111.44C116.117 111.613 116.097 111.733 116.044 111.8C115.964 111.8 115.824 111.813 115.624 111.84C115.437 111.853 115.257 111.887 115.084 111.94C114.924 111.98 114.824 112.047 114.784 112.14C114.717 112.313 114.677 112.533 114.664 112.8C114.651 113.067 114.644 113.373 114.644 113.72C114.644 113.76 114.644 113.807 114.644 113.86C114.644 113.9 114.644 113.94 114.644 113.98V121.16C114.644 121.2 114.644 121.247 114.644 121.3C114.644 121.34 114.644 121.38 114.644 121.42C114.644 121.767 114.651 122.073 114.664 122.34C114.677 122.607 114.717 122.827 114.784 123C114.824 123.08 114.924 123.147 115.084 123.2C115.257 123.253 115.437 123.293 115.624 123.32C115.824 123.333 115.964 123.347 116.044 123.36C116.097 123.427 116.117 123.547 116.104 123.72C116.104 123.893 116.084 124.013 116.044 124.08C115.671 124.04 115.211 124.007 114.664 123.98C114.131 123.953 113.657 123.94 113.244 123.94C112.831 123.94 112.364 123.953 111.844 123.98C111.324 124.007 110.871 124.04 110.484 124.08C110.444 124.013 110.417 123.893 110.404 123.72C110.404 123.547 110.431 123.427 110.484 123.36C110.577 123.347 110.717 123.333 110.904 123.32C111.091 123.293 111.271 123.253 111.444 123.2C111.617 123.147 111.717 123.08 111.744 123C111.824 122.8 111.871 122.547 111.884 122.24C111.897 121.933 111.904 121.573 111.904 121.16V113.98C111.904 113.553 111.897 113.193 111.884 112.9C111.871 112.593 111.824 112.34 111.744 112.14C111.717 112.047 111.617 111.98 111.444 111.94C111.271 111.887 111.091 111.853 110.904 111.84C110.717 111.813 110.577 111.8 110.484 111.8C110.431 111.733 110.404 111.613 110.404 111.44C110.417 111.253 110.444 111.133 110.484 111.08C110.871 111.12 111.331 111.153 111.864 111.18C112.397 111.193 112.871 111.2 113.284 111.2ZM120.346 111.18C120.679 111.18 121.006 111.167 121.326 111.14C121.659 111.113 122.019 111.093 122.406 111.08C122.553 111.387 122.753 111.833 123.006 112.42C123.273 113.007 123.573 113.68 123.906 114.44C124.239 115.2 124.593 116.007 124.966 116.86C125.353 117.7 125.726 118.533 126.086 119.36C126.086 119.36 126.093 119.367 126.106 119.38C126.133 119.393 126.153 119.4 126.166 119.4C126.179 119.4 126.193 119.387 126.206 119.36C126.233 119.32 126.246 119.293 126.246 119.28C126.246 119.28 126.326 119.087 126.486 118.7C126.646 118.3 126.846 117.793 127.086 117.18C127.326 116.567 127.573 115.92 127.826 115.24C128.093 114.56 128.333 113.927 128.546 113.34C128.653 113.06 128.753 112.753 128.846 112.42C128.953 112.073 129.039 111.773 129.106 111.52C129.173 111.267 129.206 111.14 129.206 111.14C129.273 111.14 129.446 111.147 129.726 111.16C130.019 111.173 130.326 111.187 130.646 111.2C130.966 111.2 131.186 111.2 131.306 111.2C131.639 111.2 132.006 111.187 132.406 111.16C132.806 111.12 133.199 111.093 133.586 111.08C133.626 111.12 133.659 111.233 133.686 111.42C133.726 111.607 133.719 111.74 133.666 111.82C133.586 111.82 133.419 111.84 133.166 111.88C132.926 111.907 132.753 111.953 132.646 112.02C132.553 112.087 132.479 112.173 132.426 112.28C132.386 112.373 132.373 112.553 132.386 112.82C132.399 113.153 132.413 113.653 132.426 114.32C132.453 114.973 132.479 115.7 132.506 116.5C132.533 117.3 132.559 118.1 132.586 118.9C132.613 119.7 132.639 120.413 132.666 121.04C132.693 121.413 132.719 121.773 132.746 122.12C132.773 122.453 132.833 122.747 132.926 123C132.966 123.093 133.073 123.167 133.246 123.22C133.433 123.273 133.619 123.313 133.806 123.34C133.993 123.353 134.113 123.36 134.166 123.36C134.273 123.587 134.286 123.827 134.206 124.08C133.819 124.053 133.386 124.02 132.906 123.98C132.426 123.94 131.973 123.92 131.546 123.92C131.093 123.92 130.579 123.94 130.006 123.98C129.433 124.02 128.919 124.053 128.466 124.08C128.426 124.04 128.399 123.933 128.386 123.76C128.386 123.573 128.399 123.44 128.426 123.36C128.506 123.36 128.646 123.347 128.846 123.32C129.046 123.293 129.239 123.253 129.426 123.2C129.626 123.147 129.753 123.073 129.806 122.98C129.859 122.9 129.899 122.793 129.926 122.66C129.953 122.513 129.966 122.393 129.966 122.3C129.966 122.193 129.966 122.013 129.966 121.76C129.966 121.493 129.959 121.273 129.946 121.1L129.746 114.3C129.746 114.273 129.739 114.18 129.726 114.02C129.713 113.86 129.673 113.78 129.606 113.78C129.579 113.78 129.546 113.827 129.506 113.92L126.066 123.22C126.053 123.273 125.999 123.367 125.906 123.5C125.813 123.633 125.706 123.76 125.586 123.88C125.466 123.987 125.346 124.04 125.226 124.04C125.186 124.04 125.126 124.027 125.046 124L120.706 113.78C120.679 114.593 120.653 115.287 120.626 115.86C120.613 116.42 120.599 116.913 120.586 117.34C120.573 117.753 120.559 118.153 120.546 118.54C120.533 118.927 120.519 119.347 120.506 119.8C120.493 120.24 120.473 120.767 120.446 121.38C120.433 121.593 120.439 121.86 120.466 122.18C120.493 122.487 120.513 122.673 120.526 122.74C120.553 122.847 120.646 122.94 120.806 123.02C120.966 123.1 121.146 123.167 121.346 123.22C121.559 123.26 121.746 123.293 121.906 123.32C122.079 123.347 122.186 123.36 122.226 123.36C122.253 123.427 122.273 123.54 122.286 123.7C122.299 123.847 122.293 123.973 122.266 124.08C121.879 124.053 121.486 124.02 121.086 123.98C120.686 123.94 120.273 123.92 119.846 123.92C119.393 123.92 118.986 123.94 118.626 123.98C118.266 124.02 117.859 124.053 117.406 124.08C117.366 124.013 117.346 123.907 117.346 123.76C117.346 123.6 117.359 123.473 117.386 123.38C117.466 123.38 117.626 123.36 117.866 123.32C118.106 123.267 118.346 123.187 118.586 123.08C118.826 122.973 118.979 122.84 119.046 122.68C119.073 122.613 119.099 122.467 119.126 122.24C119.166 122 119.199 121.753 119.226 121.5C119.253 121.247 119.266 121.067 119.266 120.96C119.293 120.507 119.319 119.96 119.346 119.32C119.373 118.68 119.399 118.013 119.426 117.32C119.453 116.627 119.479 115.96 119.506 115.32C119.533 114.68 119.553 114.127 119.566 113.66C119.579 113.18 119.593 112.847 119.606 112.66C119.606 112.593 119.599 112.52 119.586 112.44C119.586 112.36 119.559 112.287 119.506 112.22C119.426 112.113 119.239 112.02 118.946 111.94C118.653 111.847 118.419 111.8 118.246 111.8C118.193 111.72 118.173 111.587 118.186 111.4C118.213 111.2 118.233 111.093 118.246 111.08C118.553 111.093 118.799 111.107 118.986 111.12C119.186 111.133 119.386 111.147 119.586 111.16C119.799 111.173 120.053 111.18 120.346 111.18ZM136.791 121.38L140.951 111.82C141.018 111.687 141.125 111.533 141.271 111.36C141.431 111.173 141.565 111.08 141.671 111.08C141.898 111.08 142.038 111.12 142.091 111.2L146.091 121.1C146.225 121.393 146.325 121.653 146.391 121.88C146.458 122.093 146.538 122.307 146.631 122.52C146.751 122.787 146.918 122.98 147.131 123.1C147.358 123.22 147.571 123.293 147.771 123.32C147.985 123.347 148.118 123.36 148.171 123.36C148.225 123.453 148.251 123.587 148.251 123.76C148.265 123.933 148.251 124.04 148.211 124.08C147.825 124.053 147.398 124.02 146.931 123.98C146.465 123.94 146.018 123.92 145.591 123.92C145.298 123.92 144.965 123.933 144.591 123.96C144.218 123.973 143.858 123.993 143.511 124.02C143.178 124.047 142.891 124.067 142.651 124.08C142.625 124.04 142.605 123.967 142.591 123.86C142.578 123.74 142.578 123.627 142.591 123.52C142.605 123.413 142.625 123.36 142.651 123.36C142.825 123.36 143.025 123.333 143.251 123.28C143.491 123.213 143.678 123.12 143.811 123C143.918 122.907 143.971 122.8 143.971 122.68C143.971 122.64 143.931 122.52 143.851 122.32C143.771 122.107 143.671 121.853 143.551 121.56C143.445 121.267 143.331 120.98 143.211 120.7C143.105 120.407 143.011 120.167 142.931 119.98C142.851 119.793 142.811 119.7 142.811 119.7C142.811 119.7 142.791 119.687 142.751 119.66C142.725 119.633 142.698 119.62 142.671 119.62C142.391 119.607 142.118 119.6 141.851 119.6C141.598 119.6 141.365 119.6 141.151 119.6C141.085 119.6 141.018 119.6 140.951 119.6C140.898 119.6 140.845 119.6 140.791 119.6C140.391 119.6 140.038 119.6 139.731 119.6C139.438 119.6 139.118 119.607 138.771 119.62C138.718 119.62 138.671 119.653 138.631 119.72C138.631 119.72 138.585 119.82 138.491 120.02C138.411 120.22 138.318 120.447 138.211 120.7C138.105 120.953 138.011 121.173 137.931 121.36C137.838 121.6 137.738 121.867 137.631 122.16C137.538 122.453 137.491 122.633 137.491 122.7C137.491 122.86 137.605 122.993 137.831 123.1C138.058 123.193 138.291 123.26 138.531 123.3C138.785 123.34 138.938 123.36 138.991 123.36C139.058 123.427 139.085 123.553 139.071 123.74C139.058 123.927 139.038 124.04 139.011 124.08C138.678 124.04 138.351 124.007 138.031 123.98C137.711 123.94 137.338 123.92 136.911 123.92C136.458 123.92 136.071 123.94 135.751 123.98C135.445 124.007 135.118 124.04 134.771 124.08C134.731 124.04 134.705 123.94 134.691 123.78C134.678 123.62 134.691 123.487 134.731 123.38C134.811 123.38 134.945 123.353 135.131 123.3C135.331 123.233 135.525 123.153 135.711 123.06C135.911 122.967 136.045 122.867 136.111 122.76C136.285 122.493 136.411 122.267 136.491 122.08C136.571 121.88 136.671 121.647 136.791 121.38ZM140.711 114.7L139.051 118.54C139.051 118.54 139.051 118.553 139.051 118.58C139.065 118.593 139.078 118.6 139.091 118.6C139.291 118.613 139.558 118.627 139.891 118.64C140.225 118.653 140.498 118.66 140.711 118.66C141.018 118.66 141.278 118.66 141.491 118.66C141.718 118.647 141.978 118.633 142.271 118.62C142.298 118.62 142.311 118.607 142.311 118.58C142.325 118.553 142.331 118.54 142.331 118.54L140.711 114.7ZM150.668 111.2C151.081 111.2 151.548 111.193 152.068 111.18C152.588 111.153 153.034 111.12 153.408 111.08C153.448 111.133 153.468 111.253 153.468 111.44C153.481 111.613 153.461 111.733 153.408 111.8C153.328 111.8 153.194 111.813 153.008 111.84C152.821 111.853 152.641 111.887 152.468 111.94C152.308 111.98 152.208 112.047 152.168 112.14C152.088 112.34 152.041 112.593 152.028 112.9C152.014 113.193 152.008 113.553 152.008 113.98V117.56C152.008 118.213 152.034 118.807 152.088 119.34C152.141 119.86 152.274 120.38 152.488 120.9C152.741 121.473 153.048 121.893 153.408 122.16C153.781 122.413 154.154 122.58 154.528 122.66C154.901 122.727 155.214 122.76 155.468 122.76C155.988 122.76 156.488 122.6 156.968 122.28C157.448 121.947 157.841 121.427 158.148 120.72C158.468 120.013 158.628 119.093 158.628 117.96V114.64C158.628 114.213 158.601 113.76 158.548 113.28C158.494 112.8 158.428 112.46 158.348 112.26C158.294 112.127 158.168 112.033 157.968 111.98C157.768 111.913 157.561 111.867 157.348 111.84C157.134 111.813 156.981 111.8 156.888 111.8C156.834 111.733 156.808 111.613 156.808 111.44C156.821 111.253 156.848 111.133 156.888 111.08C157.354 111.12 157.761 111.153 158.108 111.18C158.468 111.193 158.874 111.2 159.328 111.2C159.754 111.2 160.141 111.187 160.488 111.16C160.834 111.12 161.208 111.093 161.608 111.08C161.648 111.133 161.668 111.253 161.668 111.44C161.681 111.613 161.661 111.733 161.608 111.8C161.528 111.8 161.374 111.813 161.148 111.84C160.921 111.853 160.701 111.893 160.488 111.96C160.288 112.013 160.161 112.113 160.108 112.26C160.028 112.46 159.961 112.8 159.908 113.28C159.854 113.747 159.828 114.193 159.828 114.62V118.42C159.828 119.74 159.574 120.827 159.068 121.68C158.574 122.533 157.921 123.167 157.108 123.58C156.308 123.98 155.434 124.18 154.488 124.18C153.674 124.18 152.901 124.04 152.168 123.76C151.434 123.48 150.834 123.047 150.368 122.46C149.994 121.98 149.714 121.393 149.528 120.7C149.354 119.993 149.268 119.133 149.268 118.12V113.98C149.268 113.553 149.261 113.193 149.248 112.9C149.234 112.593 149.188 112.34 149.108 112.14C149.081 112.047 148.981 111.98 148.808 111.94C148.634 111.887 148.454 111.853 148.268 111.84C148.094 111.813 147.961 111.8 147.868 111.8C147.814 111.733 147.788 111.613 147.788 111.44C147.801 111.253 147.828 111.133 147.868 111.08C148.254 111.12 148.714 111.153 149.248 111.18C149.781 111.193 150.254 111.2 150.668 111.2ZM165.356 111.18C165.836 111.18 166.323 111.167 166.816 111.14C167.323 111.113 167.769 111.093 168.156 111.08C168.169 111.12 168.176 111.2 168.176 111.32C168.189 111.427 168.189 111.533 168.176 111.64C168.176 111.747 168.156 111.8 168.116 111.8C168.023 111.8 167.896 111.813 167.736 111.84C167.576 111.867 167.429 111.907 167.296 111.96C167.176 112.013 167.109 112.093 167.096 112.2C167.096 112.347 167.143 112.493 167.236 112.64L169.416 115.92C169.709 115.547 170.029 115.147 170.376 114.72C170.736 114.28 171.063 113.873 171.356 113.5C171.663 113.113 171.863 112.813 171.956 112.6C171.996 112.52 172.016 112.453 172.016 112.4C172.016 112.227 171.856 112.087 171.536 111.98C171.216 111.86 170.889 111.8 170.556 111.8C170.529 111.8 170.503 111.747 170.476 111.64C170.463 111.533 170.463 111.42 170.476 111.3C170.489 111.18 170.509 111.107 170.536 111.08C170.883 111.12 171.309 111.153 171.816 111.18C172.336 111.193 172.776 111.2 173.136 111.2C174.136 111.2 174.916 111.16 175.476 111.08C175.503 111.12 175.516 111.2 175.516 111.32C175.529 111.427 175.529 111.533 175.516 111.64C175.516 111.747 175.496 111.8 175.456 111.8C175.403 111.8 175.256 111.82 175.016 111.86C174.776 111.887 174.496 111.973 174.176 112.12C173.856 112.253 173.556 112.487 173.276 112.82L169.936 116.8C170.349 117.413 170.769 118.04 171.196 118.68C171.623 119.32 172.023 119.913 172.396 120.46C172.769 121.007 173.083 121.467 173.336 121.84C173.603 122.213 173.776 122.44 173.856 122.52C174.043 122.747 174.269 122.92 174.536 123.04C174.803 123.16 175.056 123.247 175.296 123.3C175.536 123.34 175.703 123.36 175.796 123.36C175.836 123.453 175.856 123.58 175.856 123.74C175.869 123.887 175.849 124 175.796 124.08C175.543 124.067 175.216 124.047 174.816 124.02C174.429 124.007 174.043 123.993 173.656 123.98C173.269 123.967 172.943 123.96 172.676 123.96C172.129 123.96 171.616 123.973 171.136 124C170.656 124.027 170.143 124.053 169.596 124.08C169.569 124.04 169.549 123.967 169.536 123.86C169.523 123.74 169.523 123.627 169.536 123.52C169.563 123.413 169.589 123.36 169.616 123.36C169.696 123.36 169.823 123.34 169.996 123.3C170.169 123.247 170.329 123.18 170.476 123.1C170.636 123.02 170.716 122.92 170.716 122.8C170.716 122.72 170.696 122.653 170.656 122.6L168.056 118.66C167.976 118.753 167.823 118.96 167.596 119.28C167.369 119.587 167.109 119.94 166.816 120.34C166.523 120.727 166.243 121.107 165.976 121.48C165.723 121.853 165.523 122.153 165.376 122.38C165.269 122.553 165.216 122.667 165.216 122.72C165.216 122.867 165.309 122.993 165.496 123.1C165.683 123.193 165.903 123.26 166.156 123.3C166.423 123.34 166.649 123.36 166.836 123.36C166.889 123.427 166.916 123.54 166.916 123.7C166.929 123.847 166.923 123.973 166.896 124.08C166.683 124.067 166.416 124.047 166.096 124.02C165.789 124.007 165.476 123.993 165.156 123.98C164.836 123.967 164.556 123.96 164.316 123.96C163.809 123.96 163.363 123.973 162.976 124C162.589 124.027 162.203 124.053 161.816 124.08C161.763 124.013 161.736 123.893 161.736 123.72C161.736 123.547 161.763 123.427 161.816 123.36C161.869 123.36 162.023 123.347 162.276 123.32C162.543 123.28 162.836 123.2 163.156 123.08C163.476 122.947 163.736 122.74 163.936 122.46L167.416 117.72L164.676 113.52C164.503 113.253 164.323 112.973 164.136 112.68C163.949 112.373 163.783 112.173 163.636 112.08C163.543 112.013 163.403 111.96 163.216 111.92C163.043 111.88 162.863 111.853 162.676 111.84C162.503 111.813 162.376 111.8 162.296 111.8C162.269 111.8 162.249 111.747 162.236 111.64C162.223 111.533 162.223 111.42 162.236 111.3C162.249 111.18 162.269 111.107 162.296 111.08C162.776 111.093 163.283 111.113 163.816 111.14C164.363 111.167 164.876 111.18 165.356 111.18Z" fill="#EEDFCF"/>
</svg>
