<svg width="88" height="58" viewBox="0 0 88 58" fill="none" xmlns="http://www.w3.org/2000/svg">
<mask id="path-2-outside-1" maskUnits="userSpaceOnUse" x="-0.142944" y="-1.17023" width="88" height="59" fill="black">
<rect fill="white" x="-0.142944" y="-1.17023" width="88" height="59"/>
<path fill-rule="evenodd" clip-rule="evenodd" d="M81.0832 28.2912L44.1427 1.82977L7.20231 28.2912H6.85717L7.02974 28.4148L6.85706 28.5385H7.20242L44.1429 55L81.0833 28.5385H81.4284L81.2559 28.4149L81.4286 28.2912H81.0832Z"/>
</mask>
<path fill-rule="evenodd" clip-rule="evenodd" d="M81.0832 28.2912L44.1427 1.82977L7.20231 28.2912H6.85717L7.02974 28.4148L6.85706 28.5385H7.20242L44.1429 55L81.0833 28.5385H81.4284L81.2559 28.4149L81.4286 28.2912H81.0832Z" fill="#EB651C"/>
<path d="M44.1427 1.82977L45.3074 0.203878L44.1427 -0.63041L42.9781 0.203878L44.1427 1.82977ZM81.0832 28.2912L79.9185 29.9171L80.4408 30.2912H81.0832V28.2912ZM7.20231 28.2912V30.2912H7.84473L8.36698 29.9171L7.20231 28.2912ZM6.85717 28.2912V26.2912H0.630718L5.6925 29.9171L6.85717 28.2912ZM7.02974 28.4148L8.19441 30.0407L10.4642 28.4148L8.19441 26.7889L7.02974 28.4148ZM6.85706 28.5385L5.69238 26.9126L0.630591 30.5385H6.85706V28.5385ZM7.20242 28.5385L8.36709 26.9126L7.84484 26.5385H7.20242V28.5385ZM44.1429 55L42.9782 56.6259L44.1429 57.4602L45.3075 56.6259L44.1429 55ZM81.0833 28.5385V26.5385H80.4409L79.9186 26.9126L81.0833 28.5385ZM81.4284 28.5385V30.5385H87.6549L82.5931 26.9126L81.4284 28.5385ZM81.2559 28.4149L80.0912 26.789L77.8214 28.4149L80.0912 30.0408L81.2559 28.4149ZM81.4286 28.2912L82.5932 29.9171L87.655 26.2912H81.4286V28.2912ZM42.9781 3.45567L79.9185 29.9171L82.2479 26.6653L45.3074 0.203878L42.9781 3.45567ZM8.36698 29.9171L45.3074 3.45567L42.9781 0.203878L6.03763 26.6653L8.36698 29.9171ZM7.20231 26.2912H6.85717V30.2912H7.20231V26.2912ZM5.6925 29.9171L5.86506 30.0407L8.19441 26.7889L8.02184 26.6653L5.6925 29.9171ZM8.02173 30.1644L8.19441 30.0407L5.86507 26.7889L5.69238 26.9126L8.02173 30.1644ZM7.20242 26.5385H6.85706V30.5385H7.20242V26.5385ZM6.03775 30.1644L42.9782 56.6259L45.3075 53.3741L8.36709 26.9126L6.03775 30.1644ZM45.3075 56.6259L82.248 30.1644L79.9186 26.9126L42.9782 53.3741L45.3075 56.6259ZM81.4284 26.5385H81.0833V30.5385H81.4284V26.5385ZM80.0912 30.0408L80.2638 30.1644L82.5931 26.9126L82.4205 26.789L80.0912 30.0408ZM82.4205 30.0408L82.5932 29.9171L80.2639 26.6653L80.0912 26.789L82.4205 30.0408ZM81.4286 26.2912H81.0832V30.2912H81.4286V26.2912Z" fill="#171614" mask="url(#path-2-outside-1)"/>
<path d="M16.6721 19.88C16.8108 19.88 16.9574 19.8773 17.1121 19.872C17.2668 19.8613 17.4054 19.848 17.5281 19.832C17.6028 19.9813 17.7281 20.1787 17.9041 20.424C18.0854 20.664 18.2934 20.9333 18.5281 21.232C18.7681 21.5253 19.0188 21.8293 19.2801 22.144C19.5414 22.4587 19.7921 22.7653 20.0321 23.064C20.0428 23.0373 20.0481 22.992 20.0481 22.928C20.0481 22.8587 20.0481 22.7973 20.0481 22.744V21.28C20.0481 21.1787 20.0428 21.0587 20.0321 20.92C20.0268 20.776 20.0188 20.6427 20.0081 20.52C19.9974 20.3973 19.9814 20.3173 19.9601 20.28C19.9388 20.232 19.8828 20.1973 19.7921 20.176C19.7014 20.1493 19.6081 20.1333 19.5121 20.128C19.4214 20.1173 19.3601 20.112 19.3281 20.112C19.3228 20.112 19.3148 20.0747 19.3041 20C19.2988 19.92 19.3068 19.8613 19.3281 19.824C19.5094 19.8293 19.6668 19.84 19.8001 19.856C19.9388 19.872 20.0988 19.88 20.2801 19.88C20.4508 19.88 20.6188 19.872 20.7841 19.856C20.9494 19.84 21.1094 19.8293 21.2641 19.824C21.2748 19.8453 21.2801 19.8907 21.2801 19.96C21.2854 20.024 21.2748 20.0773 21.2481 20.12C21.2268 20.12 21.1681 20.1227 21.0721 20.128C20.9761 20.1333 20.8774 20.1493 20.7761 20.176C20.6801 20.1973 20.6214 20.2373 20.6001 20.296C20.5894 20.3333 20.5761 20.4107 20.5601 20.528C20.5494 20.6453 20.5414 20.7733 20.5361 20.912C20.5308 21.0453 20.5281 21.16 20.5281 21.256V23.912C20.5281 24.1413 20.5308 24.3307 20.5361 24.48C20.5468 24.6293 20.5548 24.8053 20.5601 25.008C20.5494 25.0187 20.5148 25.0267 20.4561 25.032C20.4028 25.0373 20.3708 25.04 20.3601 25.04C20.3228 25.04 20.2828 25.024 20.2401 24.992C20.2028 24.9547 20.1628 24.9093 20.1201 24.856L16.9361 20.944V23.776C16.9361 23.9147 16.9441 24.0613 16.9601 24.216C16.9814 24.3653 17.0028 24.4693 17.0241 24.528C17.0454 24.576 17.1041 24.616 17.2001 24.648C17.2961 24.68 17.3921 24.704 17.4881 24.72C17.5841 24.7307 17.6428 24.736 17.6641 24.736C17.6908 24.7733 17.7014 24.8267 17.6961 24.896C17.6961 24.96 17.6908 25.0053 17.6801 25.032C17.5254 25.0213 17.3654 25.008 17.2001 24.992C17.0348 24.976 16.8668 24.968 16.6961 24.968C16.5148 24.968 16.3548 24.976 16.2161 24.992C16.0828 25.008 15.9254 25.0213 15.7441 25.032C15.7228 24.9947 15.7148 24.9387 15.7201 24.864C15.7308 24.784 15.7388 24.744 15.7441 24.744C15.7761 24.744 15.8374 24.736 15.9281 24.72C16.0241 24.704 16.1148 24.6827 16.2001 24.656C16.2908 24.624 16.3468 24.584 16.3681 24.536C16.3948 24.4773 16.4161 24.3707 16.4321 24.216C16.4534 24.056 16.4641 23.9013 16.4641 23.752V20.984C16.4641 20.8773 16.4534 20.752 16.4321 20.608C16.4108 20.464 16.3734 20.3547 16.3201 20.28C16.2988 20.2427 16.2508 20.2133 16.1761 20.192C16.1068 20.1707 16.0348 20.1547 15.9601 20.144C15.8908 20.128 15.8401 20.12 15.8081 20.12C15.7974 20.12 15.7868 20.0987 15.7761 20.056C15.7708 20.0133 15.7681 19.968 15.7681 19.92C15.7734 19.872 15.7814 19.8427 15.7921 19.832C15.9148 19.8373 16.0454 19.848 16.1841 19.864C16.3281 19.8747 16.4908 19.88 16.6721 19.88ZM24.55 19.792C24.8967 19.792 25.2274 19.8613 25.542 20C25.862 20.1333 26.1447 20.3227 26.39 20.568C26.6407 20.808 26.838 21.088 26.982 21.408C27.1314 21.728 27.206 22.072 27.206 22.44C27.206 22.808 27.1314 23.152 26.982 23.472C26.838 23.7867 26.6407 24.0667 26.39 24.312C26.1447 24.552 25.862 24.7413 25.542 24.88C25.2274 25.0133 24.8967 25.08 24.55 25.08C24.2087 25.08 23.878 25.0133 23.558 24.88C23.238 24.7413 22.9527 24.552 22.702 24.312C22.4567 24.0667 22.2594 23.7867 22.11 23.472C21.966 23.152 21.894 22.808 21.894 22.44C21.894 22.072 21.966 21.728 22.11 21.408C22.2594 21.088 22.4567 20.808 22.702 20.568C22.9527 20.3227 23.238 20.1333 23.558 20C23.878 19.8613 24.2087 19.792 24.55 19.792ZM24.366 20.128C24.1367 20.128 23.942 20.1893 23.782 20.312C23.6274 20.4347 23.502 20.5973 23.406 20.8C23.3154 20.9973 23.2487 21.216 23.206 21.456C23.1634 21.696 23.142 21.9333 23.142 22.168C23.142 22.4667 23.1687 22.768 23.222 23.072C23.2807 23.3707 23.3714 23.648 23.494 23.904C23.6167 24.1547 23.7767 24.3573 23.974 24.512C24.1767 24.6667 24.4247 24.744 24.718 24.744C24.9527 24.744 25.1474 24.6853 25.302 24.568C25.462 24.4453 25.59 24.2853 25.686 24.088C25.782 23.8907 25.8514 23.672 25.894 23.432C25.9367 23.192 25.958 22.9547 25.958 22.72C25.958 22.4213 25.9287 22.12 25.87 21.816C25.8167 21.512 25.726 21.232 25.598 20.976C25.4754 20.72 25.3127 20.5147 25.11 20.36C24.9074 20.2053 24.6594 20.128 24.366 20.128ZM29.8575 19.768C30.0922 19.768 30.3082 19.792 30.5055 19.84C30.7082 19.8827 30.9295 19.9307 31.1695 19.984C31.1909 20.192 31.2069 20.4 31.2175 20.608C31.2335 20.816 31.2469 21.04 31.2575 21.28C31.2362 21.312 31.2069 21.328 31.1695 21.328C31.1695 21.328 31.1669 21.328 31.1615 21.328C31.1402 21.328 31.0975 21.328 31.0335 21.328C30.9749 21.3227 30.9429 21.304 30.9375 21.272C30.9215 21.16 30.8869 21.0373 30.8335 20.904C30.7802 20.7707 30.7082 20.6427 30.6175 20.52C30.5269 20.3973 30.4202 20.296 30.2975 20.216C30.1802 20.136 30.0469 20.096 29.8975 20.096C29.7962 20.096 29.6949 20.1173 29.5935 20.16C29.4922 20.1973 29.4069 20.2667 29.3375 20.368C29.2682 20.464 29.2335 20.6 29.2335 20.776C29.2335 20.936 29.2949 21.0933 29.4175 21.248C29.5402 21.3973 29.6869 21.5387 29.8575 21.672C30.0335 21.8 30.2015 21.9173 30.3615 22.024C30.5322 22.136 30.7055 22.2587 30.8815 22.392C31.0629 22.52 31.2122 22.6827 31.3295 22.88C31.4522 23.072 31.5135 23.3227 31.5135 23.632C31.5135 23.9147 31.4309 24.1653 31.2655 24.384C31.1002 24.6027 30.8869 24.7733 30.6255 24.896C30.3695 25.0187 30.0975 25.08 29.8095 25.08C29.5802 25.08 29.3322 25.0587 29.0655 25.016C28.8042 24.9733 28.5562 24.9253 28.3215 24.872C28.2949 24.7547 28.2682 24.6053 28.2415 24.424C28.2149 24.2427 28.1909 24.0693 28.1695 23.904C28.1535 23.7333 28.1429 23.6133 28.1375 23.544C28.1535 23.5173 28.1882 23.4933 28.2415 23.472C28.3002 23.4507 28.3402 23.44 28.3615 23.44C28.4255 23.44 28.4602 23.4587 28.4655 23.496C28.4815 23.6027 28.5242 23.728 28.5935 23.872C28.6629 24.0107 28.7509 24.1493 28.8575 24.288C28.9695 24.4213 29.0975 24.5333 29.2415 24.624C29.3909 24.7093 29.5535 24.752 29.7295 24.752C29.9322 24.752 30.1082 24.696 30.2575 24.584C30.4122 24.4667 30.4895 24.2693 30.4895 23.992C30.4895 23.8533 30.4469 23.7227 30.3615 23.6C30.2815 23.472 30.1802 23.3547 30.0575 23.248C29.9349 23.1413 29.8069 23.0427 29.6735 22.952C29.5402 22.8613 29.4255 22.784 29.3295 22.72C29.1429 22.592 28.9615 22.4613 28.7855 22.328C28.6095 22.1947 28.4655 22.0373 28.3535 21.856C28.2469 21.6747 28.1935 21.448 28.1935 21.176C28.1935 20.904 28.2762 20.664 28.4415 20.456C28.6069 20.2427 28.8175 20.0747 29.0735 19.952C29.3295 19.8293 29.5909 19.768 29.8575 19.768ZM35.404 23.952L37.068 20.128C37.0946 20.0747 37.1373 20.0133 37.196 19.944C37.26 19.8693 37.3133 19.832 37.356 19.832C37.4466 19.832 37.5026 19.848 37.524 19.88L39.124 23.84C39.1773 23.9573 39.2173 24.0613 39.244 24.152C39.2706 24.2373 39.3026 24.3227 39.34 24.408C39.388 24.5147 39.4546 24.592 39.54 24.64C39.6306 24.688 39.716 24.7173 39.796 24.728C39.8813 24.7387 39.9346 24.744 39.956 24.744C39.9773 24.7813 39.988 24.8347 39.988 24.904C39.9933 24.9733 39.988 25.016 39.972 25.032C39.8173 25.0213 39.6466 25.008 39.46 24.992C39.2733 24.976 39.0946 24.968 38.924 24.968C38.8066 24.968 38.6733 24.9733 38.524 24.984C38.3746 24.9893 38.2306 24.9973 38.092 25.008C37.9586 25.0187 37.844 25.0267 37.748 25.032C37.7373 25.016 37.7293 24.9867 37.724 24.944C37.7186 24.896 37.7186 24.8507 37.724 24.808C37.7293 24.7653 37.7373 24.744 37.748 24.744C37.8173 24.744 37.8973 24.7333 37.988 24.712C38.084 24.6853 38.1586 24.648 38.212 24.6C38.2546 24.5627 38.276 24.52 38.276 24.472C38.276 24.456 38.26 24.408 38.228 24.328C38.196 24.2427 38.156 24.1413 38.108 24.024C38.0653 23.9067 38.02 23.792 37.972 23.68C37.9293 23.5627 37.892 23.4667 37.86 23.392C37.828 23.3173 37.812 23.28 37.812 23.28C37.812 23.28 37.804 23.2747 37.788 23.264C37.7773 23.2533 37.7666 23.248 37.756 23.248C37.644 23.2427 37.5346 23.24 37.428 23.24C37.3266 23.24 37.2333 23.24 37.148 23.24C37.1213 23.24 37.0946 23.24 37.068 23.24C37.0466 23.24 37.0253 23.24 37.004 23.24C36.844 23.24 36.7026 23.24 36.58 23.24C36.4626 23.24 36.3346 23.2427 36.196 23.248C36.1746 23.248 36.156 23.2613 36.14 23.288C36.14 23.288 36.1213 23.328 36.084 23.408C36.052 23.488 36.0146 23.5787 35.972 23.68C35.9293 23.7813 35.892 23.8693 35.86 23.944C35.8226 24.04 35.7826 24.1467 35.74 24.264C35.7026 24.3813 35.684 24.4533 35.684 24.48C35.684 24.544 35.7293 24.5973 35.82 24.64C35.9106 24.6773 36.004 24.704 36.1 24.72C36.2013 24.736 36.2626 24.744 36.284 24.744C36.3106 24.7707 36.3213 24.8213 36.316 24.896C36.3106 24.9707 36.3026 25.016 36.292 25.032C36.1586 25.016 36.028 25.0027 35.9 24.992C35.772 24.976 35.6226 24.968 35.452 24.968C35.2706 24.968 35.116 24.976 34.988 24.992C34.8653 25.0027 34.7346 25.016 34.596 25.032C34.58 25.016 34.5693 24.976 34.564 24.912C34.5586 24.848 34.564 24.7947 34.58 24.752C34.612 24.752 34.6653 24.7413 34.74 24.72C34.82 24.6933 34.8973 24.6613 34.972 24.624C35.052 24.5867 35.1053 24.5467 35.132 24.504C35.2013 24.3973 35.252 24.3067 35.284 24.232C35.316 24.152 35.356 24.0587 35.404 23.952ZM36.972 21.28L36.308 22.816C36.308 22.816 36.308 22.8213 36.308 22.832C36.3133 22.8373 36.3186 22.84 36.324 22.84C36.404 22.8453 36.5106 22.8507 36.644 22.856C36.7773 22.8613 36.8866 22.864 36.972 22.864C37.0946 22.864 37.1986 22.864 37.284 22.864C37.3746 22.8587 37.4786 22.8533 37.596 22.848C37.6066 22.848 37.612 22.8427 37.612 22.832C37.6173 22.8213 37.62 22.816 37.62 22.816L36.972 21.28ZM41.5274 19.872C41.6607 19.872 41.7914 19.8667 41.9194 19.856C42.0527 19.8453 42.1967 19.8373 42.3514 19.832C42.4101 19.9547 42.4901 20.1333 42.5914 20.368C42.6981 20.6027 42.8181 20.872 42.9514 21.176C43.0847 21.48 43.2261 21.8027 43.3754 22.144C43.5301 22.48 43.6794 22.8133 43.8234 23.144C43.8234 23.144 43.8261 23.1467 43.8314 23.152C43.8421 23.1573 43.8501 23.16 43.8554 23.16C43.8607 23.16 43.8661 23.1547 43.8714 23.144C43.8821 23.128 43.8874 23.1173 43.8874 23.112C43.8874 23.112 43.9194 23.0347 43.9834 22.88C44.0474 22.72 44.1274 22.5173 44.2234 22.272C44.3194 22.0267 44.4181 21.768 44.5194 21.496C44.6261 21.224 44.7221 20.9707 44.8074 20.736C44.8501 20.624 44.8901 20.5013 44.9274 20.368C44.9701 20.2293 45.0047 20.1093 45.0314 20.008C45.0581 19.9067 45.0714 19.856 45.0714 19.856C45.0981 19.856 45.1674 19.8587 45.2794 19.864C45.3967 19.8693 45.5194 19.8747 45.6474 19.88C45.7754 19.88 45.8634 19.88 45.9114 19.88C46.0447 19.88 46.1914 19.8747 46.3514 19.864C46.5114 19.848 46.6687 19.8373 46.8234 19.832C46.8394 19.848 46.8527 19.8933 46.8634 19.968C46.8794 20.0427 46.8767 20.096 46.8554 20.128C46.8234 20.128 46.7567 20.136 46.6554 20.152C46.5594 20.1627 46.4901 20.1813 46.4474 20.208C46.4101 20.2347 46.3807 20.2693 46.3594 20.312C46.3434 20.3493 46.3381 20.4213 46.3434 20.528C46.3487 20.6613 46.3541 20.8613 46.3594 21.128C46.3701 21.3893 46.3807 21.68 46.3914 22C46.4021 22.32 46.4127 22.64 46.4234 22.96C46.4341 23.28 46.4447 23.5653 46.4554 23.816C46.4661 23.9653 46.4767 24.1093 46.4874 24.248C46.4981 24.3813 46.5221 24.4987 46.5594 24.6C46.5754 24.6373 46.6181 24.6667 46.6874 24.688C46.7621 24.7093 46.8367 24.7253 46.9114 24.736C46.9861 24.7413 47.0341 24.744 47.0554 24.744C47.0981 24.8347 47.1034 24.9307 47.0714 25.032C46.9167 25.0213 46.7434 25.008 46.5514 24.992C46.3594 24.976 46.1781 24.968 46.0074 24.968C45.8261 24.968 45.6207 24.976 45.3914 24.992C45.1621 25.008 44.9567 25.0213 44.7754 25.032C44.7594 25.016 44.7487 24.9733 44.7434 24.904C44.7434 24.8293 44.7487 24.776 44.7594 24.744C44.7914 24.744 44.8474 24.7387 44.9274 24.728C45.0074 24.7173 45.0847 24.7013 45.1594 24.68C45.2394 24.6587 45.2901 24.6293 45.3114 24.592C45.3327 24.56 45.3487 24.5173 45.3594 24.464C45.3701 24.4053 45.3754 24.3573 45.3754 24.32C45.3754 24.2773 45.3754 24.2053 45.3754 24.104C45.3754 23.9973 45.3727 23.9093 45.3674 23.84L45.2874 21.12C45.2874 21.1093 45.2847 21.072 45.2794 21.008C45.2741 20.944 45.2581 20.912 45.2314 20.912C45.2207 20.912 45.2074 20.9307 45.1914 20.968L43.8154 24.688C43.8101 24.7093 43.7887 24.7467 43.7514 24.8C43.7141 24.8533 43.6714 24.904 43.6234 24.952C43.5754 24.9947 43.5274 25.016 43.4794 25.016C43.4634 25.016 43.4394 25.0107 43.4074 25L41.6714 20.912C41.6607 21.2373 41.6501 21.5147 41.6394 21.744C41.6341 21.968 41.6287 22.1653 41.6234 22.336C41.6181 22.5013 41.6127 22.6613 41.6074 22.816C41.6021 22.9707 41.5967 23.1387 41.5914 23.32C41.5861 23.496 41.5781 23.7067 41.5674 23.952C41.5621 24.0373 41.5647 24.144 41.5754 24.272C41.5861 24.3947 41.5941 24.4693 41.5994 24.496C41.6101 24.5387 41.6474 24.576 41.7114 24.608C41.7754 24.64 41.8474 24.6667 41.9274 24.688C42.0127 24.704 42.0874 24.7173 42.1514 24.728C42.2207 24.7387 42.2634 24.744 42.2794 24.744C42.2901 24.7707 42.2981 24.816 42.3034 24.88C42.3087 24.9387 42.3061 24.9893 42.2954 25.032C42.1407 25.0213 41.9834 25.008 41.8234 24.992C41.6634 24.976 41.4981 24.968 41.3274 24.968C41.1461 24.968 40.9834 24.976 40.8394 24.992C40.6954 25.008 40.5327 25.0213 40.3514 25.032C40.3354 25.0053 40.3274 24.9627 40.3274 24.904C40.3274 24.84 40.3327 24.7893 40.3434 24.752C40.3754 24.752 40.4394 24.744 40.5354 24.728C40.6314 24.7067 40.7274 24.6747 40.8234 24.632C40.9194 24.5893 40.9807 24.536 41.0074 24.472C41.0181 24.4453 41.0287 24.3867 41.0394 24.296C41.0554 24.2 41.0687 24.1013 41.0794 24C41.0901 23.8987 41.0954 23.8267 41.0954 23.784C41.1061 23.6027 41.1167 23.384 41.1274 23.128C41.1381 22.872 41.1487 22.6053 41.1594 22.328C41.1701 22.0507 41.1807 21.784 41.1914 21.528C41.2021 21.272 41.2101 21.0507 41.2154 20.864C41.2207 20.672 41.2261 20.5387 41.2314 20.464C41.2314 20.4373 41.2287 20.408 41.2234 20.376C41.2234 20.344 41.2127 20.3147 41.1914 20.288C41.1594 20.2453 41.0847 20.208 40.9674 20.176C40.8501 20.1387 40.7567 20.12 40.6874 20.12C40.6661 20.088 40.6581 20.0347 40.6634 19.96C40.6741 19.88 40.6821 19.8373 40.6874 19.832C40.8101 19.8373 40.9087 19.8427 40.9834 19.848C41.0634 19.8533 41.1434 19.8587 41.2234 19.864C41.3087 19.8693 41.4101 19.872 41.5274 19.872ZM48.9355 19.88C49.1009 19.88 49.2875 19.8773 49.4955 19.872C49.7089 19.8613 49.8902 19.848 50.0395 19.832C50.0555 19.8533 50.0635 19.9013 50.0635 19.976C50.0689 20.0453 50.0609 20.0933 50.0395 20.12C50.0075 20.12 49.9515 20.1253 49.8715 20.136C49.7969 20.1413 49.7249 20.1547 49.6555 20.176C49.5915 20.192 49.5515 20.2187 49.5355 20.256C49.5089 20.3253 49.4929 20.4133 49.4875 20.52C49.4822 20.6267 49.4795 20.7493 49.4795 20.888C49.4795 20.904 49.4795 20.9227 49.4795 20.944C49.4795 20.96 49.4795 20.976 49.4795 20.992V23.864C49.4795 23.88 49.4795 23.8987 49.4795 23.92C49.4795 23.936 49.4795 23.952 49.4795 23.968C49.4795 24.1067 49.4822 24.2293 49.4875 24.336C49.4929 24.4427 49.5089 24.5307 49.5355 24.6C49.5515 24.632 49.5915 24.6587 49.6555 24.68C49.7249 24.7013 49.7969 24.7173 49.8715 24.728C49.9515 24.7333 50.0075 24.7387 50.0395 24.744C50.0609 24.7707 50.0689 24.8187 50.0635 24.888C50.0635 24.9573 50.0555 25.0053 50.0395 25.032C49.8902 25.016 49.7062 25.0027 49.4875 24.992C49.2742 24.9813 49.0849 24.976 48.9195 24.976C48.7542 24.976 48.5675 24.9813 48.3595 24.992C48.1515 25.0027 47.9702 25.016 47.8155 25.032C47.7995 25.0053 47.7889 24.9573 47.7835 24.888C47.7835 24.8187 47.7942 24.7707 47.8155 24.744C47.8529 24.7387 47.9089 24.7333 47.9835 24.728C48.0582 24.7173 48.1302 24.7013 48.1995 24.68C48.2689 24.6587 48.3089 24.632 48.3195 24.6C48.3515 24.52 48.3702 24.4187 48.3755 24.296C48.3809 24.1733 48.3835 24.0293 48.3835 23.864V20.992C48.3835 20.8213 48.3809 20.6773 48.3755 20.56C48.3702 20.4373 48.3515 20.336 48.3195 20.256C48.3089 20.2187 48.2689 20.192 48.1995 20.176C48.1302 20.1547 48.0582 20.1413 47.9835 20.136C47.9089 20.1253 47.8529 20.12 47.8155 20.12C47.7942 20.0933 47.7835 20.0453 47.7835 19.976C47.7889 19.9013 47.7995 19.8533 47.8155 19.832C47.9702 19.848 48.1542 19.8613 48.3675 19.872C48.5809 19.8773 48.7702 19.88 48.9355 19.88ZM52.6622 19.768C52.8969 19.768 53.1129 19.792 53.3102 19.84C53.5129 19.8827 53.7342 19.9307 53.9742 19.984C53.9956 20.192 54.0116 20.4 54.0222 20.608C54.0382 20.816 54.0516 21.04 54.0622 21.28C54.0409 21.312 54.0116 21.328 53.9742 21.328C53.9742 21.328 53.9716 21.328 53.9662 21.328C53.9449 21.328 53.9022 21.328 53.8382 21.328C53.7796 21.3227 53.7476 21.304 53.7422 21.272C53.7262 21.16 53.6916 21.0373 53.6382 20.904C53.5849 20.7707 53.5129 20.6427 53.4222 20.52C53.3316 20.3973 53.2249 20.296 53.1022 20.216C52.9849 20.136 52.8516 20.096 52.7022 20.096C52.6009 20.096 52.4996 20.1173 52.3982 20.16C52.2969 20.1973 52.2116 20.2667 52.1422 20.368C52.0729 20.464 52.0382 20.6 52.0382 20.776C52.0382 20.936 52.0996 21.0933 52.2222 21.248C52.3449 21.3973 52.4916 21.5387 52.6622 21.672C52.8382 21.8 53.0062 21.9173 53.1662 22.024C53.3369 22.136 53.5102 22.2587 53.6862 22.392C53.8676 22.52 54.0169 22.6827 54.1342 22.88C54.2569 23.072 54.3182 23.3227 54.3182 23.632C54.3182 23.9147 54.2356 24.1653 54.0702 24.384C53.9049 24.6027 53.6916 24.7733 53.4302 24.896C53.1742 25.0187 52.9022 25.08 52.6142 25.08C52.3849 25.08 52.1369 25.0587 51.8702 25.016C51.6089 24.9733 51.3609 24.9253 51.1262 24.872C51.0996 24.7547 51.0729 24.6053 51.0462 24.424C51.0196 24.2427 50.9956 24.0693 50.9742 23.904C50.9582 23.7333 50.9476 23.6133 50.9422 23.544C50.9582 23.5173 50.9929 23.4933 51.0462 23.472C51.1049 23.4507 51.1449 23.44 51.1662 23.44C51.2302 23.44 51.2649 23.4587 51.2702 23.496C51.2862 23.6027 51.3289 23.728 51.3982 23.872C51.4676 24.0107 51.5556 24.1493 51.6622 24.288C51.7742 24.4213 51.9022 24.5333 52.0462 24.624C52.1956 24.7093 52.3582 24.752 52.5342 24.752C52.7369 24.752 52.9129 24.696 53.0622 24.584C53.2169 24.4667 53.2942 24.2693 53.2942 23.992C53.2942 23.8533 53.2516 23.7227 53.1662 23.6C53.0862 23.472 52.9849 23.3547 52.8622 23.248C52.7396 23.1413 52.6116 23.0427 52.4782 22.952C52.3449 22.8613 52.2302 22.784 52.1342 22.72C51.9476 22.592 51.7662 22.4613 51.5902 22.328C51.4142 22.1947 51.2702 22.0373 51.1582 21.856C51.0516 21.6747 50.9982 21.448 50.9982 21.176C50.9982 20.904 51.0809 20.664 51.2462 20.456C51.4116 20.2427 51.6222 20.0747 51.8782 19.952C52.1342 19.8293 52.3956 19.768 52.6622 19.768ZM59.4327 23.896C59.4327 23.896 59.4327 23.9013 59.4327 23.912C59.4327 23.9387 59.4327 23.992 59.4327 24.072C59.4327 24.1467 59.4353 24.2267 59.4407 24.312C59.4513 24.3973 59.4673 24.464 59.4887 24.512C59.5153 24.5653 59.582 24.6053 59.6887 24.632C59.7953 24.6587 59.8993 24.672 60.0007 24.672H60.5127C60.662 24.672 60.798 24.6507 60.9207 24.608C61.0487 24.5653 61.1553 24.5013 61.2407 24.416C61.326 24.3307 61.4007 24.2293 61.4647 24.112C61.5287 23.9947 61.5953 23.848 61.6647 23.672C61.6753 23.64 61.71 23.624 61.7687 23.624C61.8113 23.624 61.8593 23.6293 61.9127 23.64C61.966 23.6507 61.998 23.6613 62.0087 23.672C61.9607 23.8107 61.9073 23.9627 61.8487 24.128C61.79 24.2933 61.7367 24.4533 61.6887 24.608C61.6407 24.7627 61.606 24.8987 61.5847 25.016H58.8887C58.6113 25.016 58.3687 25.016 58.1607 25.016C57.9527 25.0213 57.822 25.024 57.7687 25.024C57.7527 24.9973 57.742 24.9493 57.7367 24.88C57.7367 24.8107 57.7473 24.7627 57.7687 24.736C57.806 24.7307 57.862 24.7253 57.9367 24.72C58.0113 24.7093 58.0833 24.696 58.1527 24.68C58.222 24.6587 58.262 24.632 58.2727 24.6C58.3047 24.52 58.3233 24.4187 58.3287 24.296C58.334 24.1733 58.3367 24.0293 58.3367 23.864V20.992C58.3367 20.8213 58.334 20.6773 58.3287 20.56C58.3233 20.4373 58.3047 20.336 58.2727 20.256C58.262 20.2187 58.222 20.192 58.1527 20.176C58.0833 20.1547 58.0113 20.1413 57.9367 20.136C57.862 20.1253 57.806 20.12 57.7687 20.12C57.7473 20.0933 57.7367 20.0453 57.7367 19.976C57.742 19.9013 57.7527 19.8533 57.7687 19.832C57.9233 19.848 58.1073 19.8613 58.3207 19.872C58.534 19.8773 58.7233 19.88 58.8887 19.88C59.054 19.88 59.2407 19.8773 59.4487 19.872C59.662 19.8613 59.8433 19.848 59.9927 19.832C60.0087 19.8533 60.0167 19.9013 60.0167 19.976C60.022 20.0453 60.014 20.0933 59.9927 20.12C59.9607 20.12 59.9047 20.1253 59.8247 20.136C59.75 20.1413 59.678 20.1547 59.6087 20.176C59.5447 20.192 59.5047 20.2187 59.4887 20.256C59.462 20.3253 59.446 20.4133 59.4407 20.52C59.4353 20.6267 59.4327 20.7493 59.4327 20.888C59.4327 20.904 59.4327 20.9227 59.4327 20.944C59.4327 20.96 59.4327 20.976 59.4327 20.992V23.896ZM63.6621 19.864C63.7261 19.864 63.8381 19.864 63.9981 19.864C64.1634 19.8587 64.3501 19.8533 64.5581 19.848C64.7714 19.8427 64.9874 19.84 65.2061 19.84C65.4248 19.8347 65.6221 19.8293 65.7981 19.824C65.9794 19.8187 66.1154 19.816 66.2061 19.816C66.2328 20.0133 66.2674 20.2107 66.3101 20.408C66.3528 20.6053 66.3928 20.792 66.4301 20.968C66.4194 20.9787 66.3928 20.9893 66.3501 21C66.3074 21.0053 66.2728 21.008 66.2461 21.008C66.1821 21.008 66.1421 20.9867 66.1261 20.944C66.0408 20.7253 65.9368 20.5413 65.8141 20.392C65.6968 20.2373 65.5181 20.16 65.2781 20.16H64.6301C64.5448 20.16 64.4621 20.1653 64.3821 20.176C64.3074 20.1813 64.2594 20.2053 64.2381 20.248C64.2221 20.2907 64.2114 20.344 64.2061 20.408C64.2061 20.472 64.2061 20.5467 64.2061 20.632C64.2061 20.648 64.2061 20.664 64.2061 20.68C64.2061 20.696 64.2061 20.712 64.2061 20.728V22.128C64.2061 22.1493 64.2408 22.168 64.3101 22.184C64.3794 22.2 64.4568 22.208 64.5421 22.208H64.9501C65.1048 22.208 65.2221 22.1947 65.3021 22.168C65.3874 22.1413 65.4541 22.088 65.5021 22.008C65.5501 21.928 65.5954 21.8133 65.6381 21.664C65.6488 21.6213 65.6808 21.6 65.7341 21.6C65.8034 21.6 65.8514 21.6133 65.8781 21.64V23.144C65.8728 23.1493 65.8541 23.1547 65.8221 23.16C65.7954 23.1653 65.7688 23.168 65.7421 23.168C65.6728 23.168 65.6354 23.1493 65.6301 23.112C65.5821 22.9253 65.5341 22.8027 65.4861 22.744C65.4381 22.6853 65.3954 22.648 65.3581 22.632C65.2674 22.5947 65.0701 22.576 64.7661 22.576C64.6968 22.576 64.6168 22.5787 64.5261 22.584C64.4408 22.5893 64.3661 22.6 64.3021 22.616C64.2381 22.632 64.2061 22.656 64.2061 22.688V23.896C64.2061 23.896 64.2061 23.9013 64.2061 23.912C64.2061 23.9387 64.2061 23.992 64.2061 24.072C64.2061 24.1467 64.2088 24.2267 64.2141 24.312C64.2248 24.3973 64.2408 24.464 64.2621 24.512C64.2888 24.5653 64.3554 24.6053 64.4621 24.632C64.5688 24.6587 64.6728 24.672 64.7741 24.672H65.2861C65.4354 24.672 65.5714 24.6507 65.6941 24.608C65.8221 24.5653 65.9288 24.5013 66.0141 24.416C66.0994 24.3307 66.1741 24.2293 66.2381 24.112C66.3021 23.9947 66.3688 23.848 66.4381 23.672C66.4488 23.64 66.4834 23.624 66.5421 23.624C66.5848 23.624 66.6328 23.6293 66.6861 23.64C66.7394 23.6507 66.7714 23.6613 66.7821 23.672C66.7341 23.8107 66.6808 23.9627 66.6221 24.128C66.5634 24.2933 66.5101 24.4533 66.4621 24.608C66.4141 24.7627 66.3794 24.8987 66.3581 25.016C66.3048 25.016 66.1821 25.016 65.9901 25.016C65.7981 25.016 65.5661 25.016 65.2941 25.016C65.0221 25.016 64.7368 25.016 64.4381 25.016C64.1448 25.016 63.8621 25.016 63.5901 25.016C63.3234 25.016 63.0941 25.016 62.9021 25.016C62.7154 25.0213 62.5954 25.024 62.5421 25.024C62.5261 24.9973 62.5154 24.9493 62.5101 24.88C62.5101 24.8107 62.5208 24.7627 62.5421 24.736C62.5794 24.7307 62.6354 24.7253 62.7101 24.72C62.7848 24.7093 62.8568 24.696 62.9261 24.68C62.9954 24.6587 63.0354 24.632 63.0461 24.6C63.0781 24.52 63.0968 24.4187 63.1021 24.296C63.1074 24.1733 63.1101 24.0293 63.1101 23.864V20.992C63.1101 20.8213 63.1074 20.6773 63.1021 20.56C63.0968 20.4373 63.0781 20.336 63.0461 20.256C63.0354 20.2187 62.9954 20.192 62.9261 20.176C62.8568 20.16 62.7848 20.1493 62.7101 20.144C62.6354 20.1387 62.5794 20.136 62.5421 20.136C62.5208 20.1093 62.5101 20.0587 62.5101 19.984C62.5154 19.9093 62.5261 19.8613 62.5421 19.84C62.7181 19.8507 62.9074 19.8587 63.1101 19.864C63.3128 19.864 63.4968 19.864 63.6621 19.864ZM69.2794 19.768C69.5141 19.768 69.7301 19.792 69.9274 19.84C70.1301 19.8827 70.3514 19.9307 70.5914 19.984C70.6127 20.192 70.6287 20.4 70.6394 20.608C70.6554 20.816 70.6687 21.04 70.6794 21.28C70.6581 21.312 70.6287 21.328 70.5914 21.328C70.5914 21.328 70.5887 21.328 70.5834 21.328C70.5621 21.328 70.5194 21.328 70.4554 21.328C70.3967 21.3227 70.3647 21.304 70.3594 21.272C70.3434 21.16 70.3087 21.0373 70.2554 20.904C70.2021 20.7707 70.1301 20.6427 70.0394 20.52C69.9487 20.3973 69.8421 20.296 69.7194 20.216C69.6021 20.136 69.4687 20.096 69.3194 20.096C69.2181 20.096 69.1167 20.1173 69.0154 20.16C68.9141 20.1973 68.8287 20.2667 68.7594 20.368C68.6901 20.464 68.6554 20.6 68.6554 20.776C68.6554 20.936 68.7167 21.0933 68.8394 21.248C68.9621 21.3973 69.1087 21.5387 69.2794 21.672C69.4554 21.8 69.6234 21.9173 69.7834 22.024C69.9541 22.136 70.1274 22.2587 70.3034 22.392C70.4847 22.52 70.6341 22.6827 70.7514 22.88C70.8741 23.072 70.9354 23.3227 70.9354 23.632C70.9354 23.9147 70.8527 24.1653 70.6874 24.384C70.5221 24.6027 70.3087 24.7733 70.0474 24.896C69.7914 25.0187 69.5194 25.08 69.2314 25.08C69.0021 25.08 68.7541 25.0587 68.4874 25.016C68.2261 24.9733 67.9781 24.9253 67.7434 24.872C67.7167 24.7547 67.6901 24.6053 67.6634 24.424C67.6367 24.2427 67.6127 24.0693 67.5914 23.904C67.5754 23.7333 67.5647 23.6133 67.5594 23.544C67.5754 23.5173 67.6101 23.4933 67.6634 23.472C67.7221 23.4507 67.7621 23.44 67.7834 23.44C67.8474 23.44 67.8821 23.4587 67.8874 23.496C67.9034 23.6027 67.9461 23.728 68.0154 23.872C68.0847 24.0107 68.1727 24.1493 68.2794 24.288C68.3914 24.4213 68.5194 24.5333 68.6634 24.624C68.8127 24.7093 68.9754 24.752 69.1514 24.752C69.3541 24.752 69.5301 24.696 69.6794 24.584C69.8341 24.4667 69.9114 24.2693 69.9114 23.992C69.9114 23.8533 69.8687 23.7227 69.7834 23.6C69.7034 23.472 69.6021 23.3547 69.4794 23.248C69.3567 23.1413 69.2287 23.0427 69.0954 22.952C68.9621 22.8613 68.8474 22.784 68.7514 22.72C68.5647 22.592 68.3834 22.4613 68.2074 22.328C68.0314 22.1947 67.8874 22.0373 67.7754 21.856C67.6687 21.6747 67.6154 21.448 67.6154 21.176C67.6154 20.904 67.6981 20.664 67.8634 20.456C68.0287 20.2427 68.2394 20.0747 68.4954 19.952C68.7514 19.8293 69.0127 19.768 69.2794 19.768ZM24.8727 37.952L26.5367 34.128C26.5634 34.0747 26.6061 34.0133 26.6647 33.944C26.7287 33.8693 26.7821 33.832 26.8247 33.832C26.9154 33.832 26.9714 33.848 26.9927 33.88L28.5927 37.84C28.6461 37.9573 28.6861 38.0613 28.7127 38.152C28.7394 38.2373 28.7714 38.3227 28.8087 38.408C28.8567 38.5147 28.9234 38.592 29.0087 38.64C29.0994 38.688 29.1847 38.7173 29.2647 38.728C29.3501 38.7387 29.4034 38.744 29.4247 38.744C29.4461 38.7813 29.4567 38.8347 29.4567 38.904C29.4621 38.9733 29.4567 39.016 29.4407 39.032C29.2861 39.0213 29.1154 39.008 28.9287 38.992C28.7421 38.976 28.5634 38.968 28.3927 38.968C28.2754 38.968 28.1421 38.9733 27.9927 38.984C27.8434 38.9893 27.6994 38.9973 27.5607 39.008C27.4274 39.0187 27.3127 39.0267 27.2167 39.032C27.2061 39.016 27.1981 38.9867 27.1927 38.944C27.1874 38.896 27.1874 38.8507 27.1927 38.808C27.1981 38.7653 27.2061 38.744 27.2167 38.744C27.2861 38.744 27.3661 38.7333 27.4567 38.712C27.5527 38.6853 27.6274 38.648 27.6807 38.6C27.7234 38.5627 27.7447 38.52 27.7447 38.472C27.7447 38.456 27.7287 38.408 27.6967 38.328C27.6647 38.2427 27.6247 38.1413 27.5767 38.024C27.5341 37.9067 27.4887 37.792 27.4407 37.68C27.3981 37.5627 27.3607 37.4667 27.3287 37.392C27.2967 37.3173 27.2807 37.28 27.2807 37.28C27.2807 37.28 27.2727 37.2747 27.2567 37.264C27.2461 37.2533 27.2354 37.248 27.2247 37.248C27.1127 37.2427 27.0034 37.24 26.8967 37.24C26.7954 37.24 26.7021 37.24 26.6167 37.24C26.5901 37.24 26.5634 37.24 26.5367 37.24C26.5154 37.24 26.4941 37.24 26.4727 37.24C26.3127 37.24 26.1714 37.24 26.0487 37.24C25.9314 37.24 25.8034 37.2427 25.6647 37.248C25.6434 37.248 25.6247 37.2613 25.6087 37.288C25.6087 37.288 25.5901 37.328 25.5527 37.408C25.5207 37.488 25.4834 37.5787 25.4407 37.68C25.3981 37.7813 25.3607 37.8693 25.3287 37.944C25.2914 38.04 25.2514 38.1467 25.2087 38.264C25.1714 38.3813 25.1527 38.4533 25.1527 38.48C25.1527 38.544 25.1981 38.5973 25.2887 38.64C25.3794 38.6773 25.4727 38.704 25.5687 38.72C25.6701 38.736 25.7314 38.744 25.7527 38.744C25.7794 38.7707 25.7901 38.8213 25.7847 38.896C25.7794 38.9707 25.7714 39.016 25.7607 39.032C25.6274 39.016 25.4967 39.0027 25.3687 38.992C25.2407 38.976 25.0914 38.968 24.9207 38.968C24.7394 38.968 24.5847 38.976 24.4567 38.992C24.3341 39.0027 24.2034 39.016 24.0647 39.032C24.0487 39.016 24.0381 38.976 24.0327 38.912C24.0274 38.848 24.0327 38.7947 24.0487 38.752C24.0807 38.752 24.1341 38.7413 24.2087 38.72C24.2887 38.6933 24.3661 38.6613 24.4407 38.624C24.5207 38.5867 24.5741 38.5467 24.6007 38.504C24.6701 38.3973 24.7207 38.3067 24.7527 38.232C24.7847 38.152 24.8247 38.0587 24.8727 37.952ZM26.4407 35.28L25.7767 36.816C25.7767 36.816 25.7767 36.8213 25.7767 36.832C25.7821 36.8373 25.7874 36.84 25.7927 36.84C25.8727 36.8453 25.9794 36.8507 26.1127 36.856C26.2461 36.8613 26.3554 36.864 26.4407 36.864C26.5634 36.864 26.6674 36.864 26.7527 36.864C26.8434 36.8587 26.9474 36.8533 27.0647 36.848C27.0754 36.848 27.0807 36.8427 27.0807 36.832C27.0861 36.8213 27.0887 36.816 27.0887 36.816L26.4407 35.28ZM30.8362 33.88C30.9748 33.88 31.1215 33.8773 31.2762 33.872C31.4308 33.8613 31.5695 33.848 31.6922 33.832C31.7668 33.9813 31.8922 34.1787 32.0682 34.424C32.2495 34.664 32.4575 34.9333 32.6922 35.232C32.9322 35.5253 33.1828 35.8293 33.4442 36.144C33.7055 36.4587 33.9562 36.7653 34.1962 37.064C34.2068 37.0373 34.2122 36.992 34.2122 36.928C34.2122 36.8587 34.2122 36.7973 34.2122 36.744V35.28C34.2122 35.1787 34.2068 35.0587 34.1962 34.92C34.1908 34.776 34.1828 34.6427 34.1722 34.52C34.1615 34.3973 34.1455 34.3173 34.1242 34.28C34.1028 34.232 34.0468 34.1973 33.9562 34.176C33.8655 34.1493 33.7722 34.1333 33.6762 34.128C33.5855 34.1173 33.5242 34.112 33.4922 34.112C33.4868 34.112 33.4788 34.0747 33.4682 34C33.4628 33.92 33.4708 33.8613 33.4922 33.824C33.6735 33.8293 33.8308 33.84 33.9642 33.856C34.1028 33.872 34.2628 33.88 34.4442 33.88C34.6148 33.88 34.7828 33.872 34.9482 33.856C35.1135 33.84 35.2735 33.8293 35.4282 33.824C35.4388 33.8453 35.4442 33.8907 35.4442 33.96C35.4495 34.024 35.4388 34.0773 35.4122 34.12C35.3908 34.12 35.3322 34.1227 35.2362 34.128C35.1402 34.1333 35.0415 34.1493 34.9402 34.176C34.8442 34.1973 34.7855 34.2373 34.7642 34.296C34.7535 34.3333 34.7402 34.4107 34.7242 34.528C34.7135 34.6453 34.7055 34.7733 34.7002 34.912C34.6948 35.0453 34.6922 35.16 34.6922 35.256V37.912C34.6922 38.1413 34.6948 38.3307 34.7002 38.48C34.7108 38.6293 34.7188 38.8053 34.7242 39.008C34.7135 39.0187 34.6788 39.0267 34.6202 39.032C34.5668 39.0373 34.5348 39.04 34.5242 39.04C34.4868 39.04 34.4468 39.024 34.4042 38.992C34.3668 38.9547 34.3268 38.9093 34.2842 38.856L31.1002 34.944V37.776C31.1002 37.9147 31.1082 38.0613 31.1242 38.216C31.1455 38.3653 31.1668 38.4693 31.1882 38.528C31.2095 38.576 31.2682 38.616 31.3642 38.648C31.4602 38.68 31.5562 38.704 31.6522 38.72C31.7482 38.7307 31.8068 38.736 31.8282 38.736C31.8548 38.7733 31.8655 38.8267 31.8602 38.896C31.8602 38.96 31.8548 39.0053 31.8442 39.032C31.6895 39.0213 31.5295 39.008 31.3642 38.992C31.1988 38.976 31.0308 38.968 30.8602 38.968C30.6788 38.968 30.5188 38.976 30.3802 38.992C30.2468 39.008 30.0895 39.0213 29.9082 39.032C29.8868 38.9947 29.8788 38.9387 29.8842 38.864C29.8948 38.784 29.9028 38.744 29.9082 38.744C29.9402 38.744 30.0015 38.736 30.0922 38.72C30.1882 38.704 30.2788 38.6827 30.3642 38.656C30.4548 38.624 30.5108 38.584 30.5322 38.536C30.5588 38.4773 30.5802 38.3707 30.5962 38.216C30.6175 38.056 30.6282 37.9013 30.6282 37.752V34.984C30.6282 34.8773 30.6175 34.752 30.5962 34.608C30.5748 34.464 30.5375 34.3547 30.4842 34.28C30.4628 34.2427 30.4148 34.2133 30.3402 34.192C30.2708 34.1707 30.1988 34.1547 30.1242 34.144C30.0548 34.128 30.0042 34.12 29.9722 34.12C29.9615 34.12 29.9508 34.0987 29.9402 34.056C29.9348 34.0133 29.9322 33.968 29.9322 33.92C29.9375 33.872 29.9455 33.8427 29.9562 33.832C30.0788 33.8373 30.2095 33.848 30.3482 33.864C30.4922 33.8747 30.6548 33.88 30.8362 33.88ZM37.2637 33.88C37.429 33.88 37.6157 33.8773 37.8237 33.872C38.037 33.8613 38.2183 33.848 38.3677 33.832C38.3837 33.8533 38.3917 33.9013 38.3917 33.976C38.397 34.0453 38.389 34.0933 38.3677 34.12C38.3357 34.12 38.2797 34.1253 38.1997 34.136C38.125 34.1413 38.053 34.1547 37.9837 34.176C37.9197 34.192 37.8797 34.2187 37.8637 34.256C37.837 34.3253 37.821 34.4133 37.8157 34.52C37.8103 34.6267 37.8077 34.7493 37.8077 34.888C37.8077 34.904 37.8077 34.9227 37.8077 34.944C37.8077 34.96 37.8077 34.976 37.8077 34.992V37.864C37.8077 37.88 37.8077 37.8987 37.8077 37.92C37.8077 37.936 37.8077 37.952 37.8077 37.968C37.8077 38.1067 37.8103 38.2293 37.8157 38.336C37.821 38.4427 37.837 38.5307 37.8637 38.6C37.8797 38.632 37.9197 38.6587 37.9837 38.68C38.053 38.7013 38.125 38.7173 38.1997 38.728C38.2797 38.7333 38.3357 38.7387 38.3677 38.744C38.389 38.7707 38.397 38.8187 38.3917 38.888C38.3917 38.9573 38.3837 39.0053 38.3677 39.032C38.2183 39.016 38.0343 39.0027 37.8157 38.992C37.6023 38.9813 37.413 38.976 37.2477 38.976C37.0823 38.976 36.8957 38.9813 36.6877 38.992C36.4797 39.0027 36.2983 39.016 36.1437 39.032C36.1277 39.0053 36.117 38.9573 36.1117 38.888C36.1117 38.8187 36.1223 38.7707 36.1437 38.744C36.181 38.7387 36.237 38.7333 36.3117 38.728C36.3863 38.7173 36.4583 38.7013 36.5277 38.68C36.597 38.6587 36.637 38.632 36.6477 38.6C36.6797 38.52 36.6983 38.4187 36.7037 38.296C36.709 38.1733 36.7117 38.0293 36.7117 37.864V34.992C36.7117 34.8213 36.709 34.6773 36.7037 34.56C36.6983 34.4373 36.6797 34.336 36.6477 34.256C36.637 34.2187 36.597 34.192 36.5277 34.176C36.4583 34.1547 36.3863 34.1413 36.3117 34.136C36.237 34.1253 36.181 34.12 36.1437 34.12C36.1223 34.0933 36.1117 34.0453 36.1117 33.976C36.117 33.9013 36.1277 33.8533 36.1437 33.832C36.2983 33.848 36.4823 33.8613 36.6957 33.872C36.909 33.8773 37.0983 33.88 37.2637 33.88ZM40.2383 33.872C40.3717 33.872 40.5023 33.8667 40.6303 33.856C40.7637 33.8453 40.9077 33.8373 41.0623 33.832C41.121 33.9547 41.201 34.1333 41.3023 34.368C41.409 34.6027 41.529 34.872 41.6623 35.176C41.7957 35.48 41.937 35.8027 42.0863 36.144C42.241 36.48 42.3903 36.8133 42.5343 37.144C42.5343 37.144 42.537 37.1467 42.5423 37.152C42.553 37.1573 42.561 37.16 42.5663 37.16C42.5717 37.16 42.577 37.1547 42.5823 37.144C42.593 37.128 42.5983 37.1173 42.5983 37.112C42.5983 37.112 42.6303 37.0347 42.6943 36.88C42.7583 36.72 42.8383 36.5173 42.9343 36.272C43.0303 36.0267 43.129 35.768 43.2303 35.496C43.337 35.224 43.433 34.9707 43.5183 34.736C43.561 34.624 43.601 34.5013 43.6383 34.368C43.681 34.2293 43.7157 34.1093 43.7423 34.008C43.769 33.9067 43.7823 33.856 43.7823 33.856C43.809 33.856 43.8783 33.8587 43.9903 33.864C44.1077 33.8693 44.2303 33.8747 44.3583 33.88C44.4863 33.88 44.5743 33.88 44.6223 33.88C44.7557 33.88 44.9023 33.8747 45.0623 33.864C45.2223 33.848 45.3797 33.8373 45.5343 33.832C45.5503 33.848 45.5637 33.8933 45.5743 33.968C45.5903 34.0427 45.5877 34.096 45.5663 34.128C45.5343 34.128 45.4677 34.136 45.3663 34.152C45.2703 34.1627 45.201 34.1813 45.1583 34.208C45.121 34.2347 45.0917 34.2693 45.0703 34.312C45.0543 34.3493 45.049 34.4213 45.0543 34.528C45.0597 34.6613 45.065 34.8613 45.0703 35.128C45.081 35.3893 45.0917 35.68 45.1023 36C45.113 36.32 45.1237 36.64 45.1343 36.96C45.145 37.28 45.1557 37.5653 45.1663 37.816C45.177 37.9653 45.1877 38.1093 45.1983 38.248C45.209 38.3813 45.233 38.4987 45.2703 38.6C45.2863 38.6373 45.329 38.6667 45.3983 38.688C45.473 38.7093 45.5477 38.7253 45.6223 38.736C45.697 38.7413 45.745 38.744 45.7663 38.744C45.809 38.8347 45.8143 38.9307 45.7823 39.032C45.6277 39.0213 45.4543 39.008 45.2623 38.992C45.0703 38.976 44.889 38.968 44.7183 38.968C44.537 38.968 44.3317 38.976 44.1023 38.992C43.873 39.008 43.6677 39.0213 43.4863 39.032C43.4703 39.016 43.4597 38.9733 43.4543 38.904C43.4543 38.8293 43.4597 38.776 43.4703 38.744C43.5023 38.744 43.5583 38.7387 43.6383 38.728C43.7183 38.7173 43.7957 38.7013 43.8703 38.68C43.9503 38.6587 44.001 38.6293 44.0223 38.592C44.0437 38.56 44.0597 38.5173 44.0703 38.464C44.081 38.4053 44.0863 38.3573 44.0863 38.32C44.0863 38.2773 44.0863 38.2053 44.0863 38.104C44.0863 37.9973 44.0837 37.9093 44.0783 37.84L43.9983 35.12C43.9983 35.1093 43.9957 35.072 43.9903 35.008C43.985 34.944 43.969 34.912 43.9423 34.912C43.9317 34.912 43.9183 34.9307 43.9023 34.968L42.5263 38.688C42.521 38.7093 42.4997 38.7467 42.4623 38.8C42.425 38.8533 42.3823 38.904 42.3343 38.952C42.2863 38.9947 42.2383 39.016 42.1903 39.016C42.1743 39.016 42.1503 39.0107 42.1183 39L40.3823 34.912C40.3717 35.2373 40.361 35.5147 40.3503 35.744C40.345 35.968 40.3397 36.1653 40.3343 36.336C40.329 36.5013 40.3237 36.6613 40.3183 36.816C40.313 36.9707 40.3077 37.1387 40.3023 37.32C40.297 37.496 40.289 37.7067 40.2783 37.952C40.273 38.0373 40.2757 38.144 40.2863 38.272C40.297 38.3947 40.305 38.4693 40.3103 38.496C40.321 38.5387 40.3583 38.576 40.4223 38.608C40.4863 38.64 40.5583 38.6667 40.6383 38.688C40.7237 38.704 40.7983 38.7173 40.8623 38.728C40.9317 38.7387 40.9743 38.744 40.9903 38.744C41.001 38.7707 41.009 38.816 41.0143 38.88C41.0197 38.9387 41.017 38.9893 41.0063 39.032C40.8517 39.0213 40.6943 39.008 40.5343 38.992C40.3743 38.976 40.209 38.968 40.0383 38.968C39.857 38.968 39.6943 38.976 39.5503 38.992C39.4063 39.008 39.2437 39.0213 39.0623 39.032C39.0463 39.0053 39.0383 38.9627 39.0383 38.904C39.0383 38.84 39.0437 38.7893 39.0543 38.752C39.0863 38.752 39.1503 38.744 39.2463 38.728C39.3423 38.7067 39.4383 38.6747 39.5343 38.632C39.6303 38.5893 39.6917 38.536 39.7183 38.472C39.729 38.4453 39.7397 38.3867 39.7503 38.296C39.7663 38.2 39.7797 38.1013 39.7903 38C39.801 37.8987 39.8063 37.8267 39.8063 37.784C39.817 37.6027 39.8277 37.384 39.8383 37.128C39.849 36.872 39.8597 36.6053 39.8703 36.328C39.881 36.0507 39.8917 35.784 39.9023 35.528C39.913 35.272 39.921 35.0507 39.9263 34.864C39.9317 34.672 39.937 34.5387 39.9423 34.464C39.9423 34.4373 39.9397 34.408 39.9343 34.376C39.9343 34.344 39.9237 34.3147 39.9023 34.288C39.8703 34.2453 39.7957 34.208 39.6783 34.176C39.561 34.1387 39.4677 34.12 39.3983 34.12C39.377 34.088 39.369 34.0347 39.3743 33.96C39.385 33.88 39.393 33.8373 39.3983 33.832C39.521 33.8373 39.6197 33.8427 39.6943 33.848C39.7743 33.8533 39.8543 33.8587 39.9343 33.864C40.0197 33.8693 40.121 33.872 40.2383 33.872ZM46.9665 37.952L48.6305 34.128C48.6571 34.0747 48.6998 34.0133 48.7585 33.944C48.8225 33.8693 48.8758 33.832 48.9185 33.832C49.0091 33.832 49.0651 33.848 49.0865 33.88L50.6865 37.84C50.7398 37.9573 50.7798 38.0613 50.8065 38.152C50.8331 38.2373 50.8651 38.3227 50.9025 38.408C50.9505 38.5147 51.0171 38.592 51.1025 38.64C51.1931 38.688 51.2785 38.7173 51.3585 38.728C51.4438 38.7387 51.4971 38.744 51.5185 38.744C51.5398 38.7813 51.5505 38.8347 51.5505 38.904C51.5558 38.9733 51.5505 39.016 51.5345 39.032C51.3798 39.0213 51.2091 39.008 51.0225 38.992C50.8358 38.976 50.6571 38.968 50.4865 38.968C50.3691 38.968 50.2358 38.9733 50.0865 38.984C49.9371 38.9893 49.7931 38.9973 49.6545 39.008C49.5211 39.0187 49.4065 39.0267 49.3105 39.032C49.2998 39.016 49.2918 38.9867 49.2865 38.944C49.2811 38.896 49.2811 38.8507 49.2865 38.808C49.2918 38.7653 49.2998 38.744 49.3105 38.744C49.3798 38.744 49.4598 38.7333 49.5505 38.712C49.6465 38.6853 49.7211 38.648 49.7745 38.6C49.8171 38.5627 49.8385 38.52 49.8385 38.472C49.8385 38.456 49.8225 38.408 49.7905 38.328C49.7585 38.2427 49.7185 38.1413 49.6705 38.024C49.6278 37.9067 49.5825 37.792 49.5345 37.68C49.4918 37.5627 49.4545 37.4667 49.4225 37.392C49.3905 37.3173 49.3745 37.28 49.3745 37.28C49.3745 37.28 49.3665 37.2747 49.3505 37.264C49.3398 37.2533 49.3291 37.248 49.3185 37.248C49.2065 37.2427 49.0971 37.24 48.9905 37.24C48.8891 37.24 48.7958 37.24 48.7105 37.24C48.6838 37.24 48.6571 37.24 48.6305 37.24C48.6091 37.24 48.5878 37.24 48.5665 37.24C48.4065 37.24 48.2651 37.24 48.1425 37.24C48.0251 37.24 47.8971 37.2427 47.7585 37.248C47.7371 37.248 47.7185 37.2613 47.7025 37.288C47.7025 37.288 47.6838 37.328 47.6465 37.408C47.6145 37.488 47.5771 37.5787 47.5345 37.68C47.4918 37.7813 47.4545 37.8693 47.4225 37.944C47.3851 38.04 47.3451 38.1467 47.3025 38.264C47.2651 38.3813 47.2465 38.4533 47.2465 38.48C47.2465 38.544 47.2918 38.5973 47.3825 38.64C47.4731 38.6773 47.5665 38.704 47.6625 38.72C47.7638 38.736 47.8251 38.744 47.8465 38.744C47.8731 38.7707 47.8838 38.8213 47.8785 38.896C47.8731 38.9707 47.8651 39.016 47.8545 39.032C47.7211 39.016 47.5905 39.0027 47.4625 38.992C47.3345 38.976 47.1851 38.968 47.0145 38.968C46.8331 38.968 46.6785 38.976 46.5505 38.992C46.4278 39.0027 46.2971 39.016 46.1585 39.032C46.1425 39.016 46.1318 38.976 46.1265 38.912C46.1211 38.848 46.1265 38.7947 46.1425 38.752C46.1745 38.752 46.2278 38.7413 46.3025 38.72C46.3825 38.6933 46.4598 38.6613 46.5345 38.624C46.6145 38.5867 46.6678 38.5467 46.6945 38.504C46.7638 38.3973 46.8145 38.3067 46.8465 38.232C46.8785 38.152 46.9185 38.0587 46.9665 37.952ZM48.5345 35.28L47.8705 36.816C47.8705 36.816 47.8705 36.8213 47.8705 36.832C47.8758 36.8373 47.8811 36.84 47.8865 36.84C47.9665 36.8453 48.0731 36.8507 48.2065 36.856C48.3398 36.8613 48.4491 36.864 48.5345 36.864C48.6571 36.864 48.7611 36.864 48.8465 36.864C48.9371 36.8587 49.0411 36.8533 49.1585 36.848C49.1691 36.848 49.1745 36.8427 49.1745 36.832C49.1798 36.8213 49.1825 36.816 49.1825 36.816L48.5345 35.28ZM52.6671 33.88C52.8324 33.88 53.0191 33.8773 53.2271 33.872C53.4351 33.8613 53.6138 33.848 53.7631 33.832C53.7791 33.8533 53.7871 33.9013 53.7871 33.976C53.7924 34.0453 53.7844 34.0933 53.7631 34.12C53.7311 34.12 53.6778 34.1253 53.6031 34.136C53.5284 34.1413 53.4564 34.1547 53.3871 34.176C53.3231 34.192 53.2831 34.2187 53.2671 34.256C53.2351 34.336 53.2164 34.4373 53.2111 34.56C53.2058 34.6773 53.2031 34.8213 53.2031 34.992V36.424C53.2031 36.6853 53.2138 36.9227 53.2351 37.136C53.2564 37.344 53.3098 37.552 53.3951 37.76C53.4964 37.9893 53.6191 38.1573 53.7631 38.264C53.9124 38.3653 54.0618 38.432 54.2111 38.464C54.3604 38.4907 54.4858 38.504 54.5871 38.504C54.7951 38.504 54.9951 38.44 55.1871 38.312C55.3791 38.1787 55.5364 37.9707 55.6591 37.688C55.7871 37.4053 55.8511 37.0373 55.8511 36.584V35.256C55.8511 35.0853 55.8404 34.904 55.8191 34.712C55.7978 34.52 55.7711 34.384 55.7391 34.304C55.7178 34.2507 55.6671 34.2133 55.5871 34.192C55.5071 34.1653 55.4244 34.1467 55.3391 34.136C55.2538 34.1253 55.1924 34.12 55.1551 34.12C55.1338 34.0933 55.1231 34.0453 55.1231 33.976C55.1284 33.9013 55.1391 33.8533 55.1551 33.832C55.3418 33.848 55.5044 33.8613 55.6431 33.872C55.7871 33.8773 55.9498 33.88 56.1311 33.88C56.3018 33.88 56.4564 33.8747 56.5951 33.864C56.7338 33.848 56.8831 33.8373 57.0431 33.832C57.0591 33.8533 57.0671 33.9013 57.0671 33.976C57.0724 34.0453 57.0644 34.0933 57.0431 34.12C57.0111 34.12 56.9498 34.1253 56.8591 34.136C56.7684 34.1413 56.6804 34.1573 56.5951 34.184C56.5151 34.2053 56.4644 34.2453 56.4431 34.304C56.4111 34.384 56.3844 34.52 56.3631 34.712C56.3418 34.8987 56.3311 35.0773 56.3311 35.248V36.768C56.3311 37.296 56.2298 37.7307 56.0271 38.072C55.8298 38.4133 55.5684 38.6667 55.2431 38.832C54.9231 38.992 54.5738 39.072 54.1951 39.072C53.8698 39.072 53.5604 39.016 53.2671 38.904C52.9738 38.792 52.7338 38.6187 52.5471 38.384C52.3978 38.192 52.2858 37.9573 52.2111 37.68C52.1418 37.3973 52.1071 37.0533 52.1071 36.648V34.992C52.1071 34.8213 52.1044 34.6773 52.0991 34.56C52.0938 34.4373 52.0751 34.336 52.0431 34.256C52.0324 34.2187 51.9924 34.192 51.9231 34.176C51.8538 34.1547 51.7818 34.1413 51.7071 34.136C51.6378 34.1253 51.5844 34.12 51.5471 34.12C51.5258 34.0933 51.5151 34.0453 51.5151 33.976C51.5204 33.9013 51.5311 33.8533 51.5471 33.832C51.7018 33.848 51.8858 33.8613 52.0991 33.872C52.3124 33.8773 52.5018 33.88 52.6671 33.88ZM58.6924 33.872C58.8844 33.872 59.0791 33.8667 59.2764 33.856C59.4791 33.8453 59.6577 33.8373 59.8124 33.832C59.8177 33.848 59.8204 33.88 59.8204 33.928C59.8257 33.9707 59.8257 34.0133 59.8204 34.056C59.8204 34.0987 59.8124 34.12 59.7964 34.12C59.7591 34.12 59.7084 34.1253 59.6444 34.136C59.5804 34.1467 59.5217 34.1627 59.4684 34.184C59.4204 34.2053 59.3937 34.2373 59.3884 34.28C59.3884 34.3387 59.4071 34.3973 59.4444 34.456L60.3164 35.768C60.4337 35.6187 60.5617 35.4587 60.7004 35.288C60.8444 35.112 60.9751 34.9493 61.0924 34.8C61.2151 34.6453 61.2951 34.5253 61.3324 34.44C61.3484 34.408 61.3564 34.3813 61.3564 34.36C61.3564 34.2907 61.2924 34.2347 61.1644 34.192C61.0364 34.144 60.9057 34.12 60.7724 34.12C60.7617 34.12 60.7511 34.0987 60.7404 34.056C60.7351 34.0133 60.7351 33.968 60.7404 33.92C60.7457 33.872 60.7537 33.8427 60.7644 33.832C60.9031 33.848 61.0737 33.8613 61.2764 33.872C61.4844 33.8773 61.6604 33.88 61.8044 33.88C62.2044 33.88 62.5164 33.864 62.7404 33.832C62.7511 33.848 62.7564 33.88 62.7564 33.928C62.7617 33.9707 62.7617 34.0133 62.7564 34.056C62.7564 34.0987 62.7484 34.12 62.7324 34.12C62.7111 34.12 62.6524 34.128 62.5564 34.144C62.4604 34.1547 62.3484 34.1893 62.2204 34.248C62.0924 34.3013 61.9724 34.3947 61.8604 34.528L60.5244 36.12C60.6897 36.3653 60.8577 36.616 61.0284 36.872C61.1991 37.128 61.3591 37.3653 61.5084 37.584C61.6577 37.8027 61.7831 37.9867 61.8844 38.136C61.9911 38.2853 62.0604 38.376 62.0924 38.408C62.1671 38.4987 62.2577 38.568 62.3644 38.616C62.4711 38.664 62.5724 38.6987 62.6684 38.72C62.7644 38.736 62.8311 38.744 62.8684 38.744C62.8844 38.7813 62.8924 38.832 62.8924 38.896C62.8977 38.9547 62.8897 39 62.8684 39.032C62.7671 39.0267 62.6364 39.0187 62.4764 39.008C62.3217 39.0027 62.1671 38.9973 62.0124 38.992C61.8577 38.9867 61.7271 38.984 61.6204 38.984C61.4017 38.984 61.1964 38.9893 61.0044 39C60.8124 39.0107 60.6071 39.0213 60.3884 39.032C60.3777 39.016 60.3697 38.9867 60.3644 38.944C60.3591 38.896 60.3591 38.8507 60.3644 38.808C60.3751 38.7653 60.3857 38.744 60.3964 38.744C60.4284 38.744 60.4791 38.736 60.5484 38.72C60.6177 38.6987 60.6817 38.672 60.7404 38.64C60.8044 38.608 60.8364 38.568 60.8364 38.52C60.8364 38.488 60.8284 38.4613 60.8124 38.44L59.7724 36.864C59.7404 36.9013 59.6791 36.984 59.5884 37.112C59.4977 37.2347 59.3937 37.376 59.2764 37.536C59.1591 37.6907 59.0471 37.8427 58.9404 37.992C58.8391 38.1413 58.7591 38.2613 58.7004 38.352C58.6577 38.4213 58.6364 38.4667 58.6364 38.488C58.6364 38.5467 58.6737 38.5973 58.7484 38.64C58.8231 38.6773 58.9111 38.704 59.0124 38.72C59.1191 38.736 59.2097 38.744 59.2844 38.744C59.3057 38.7707 59.3164 38.816 59.3164 38.88C59.3217 38.9387 59.3191 38.9893 59.3084 39.032C59.2231 39.0267 59.1164 39.0187 58.9884 39.008C58.8657 39.0027 58.7404 38.9973 58.6124 38.992C58.4844 38.9867 58.3724 38.984 58.2764 38.984C58.0737 38.984 57.8951 38.9893 57.7404 39C57.5857 39.0107 57.4311 39.0213 57.2764 39.032C57.2551 39.0053 57.2444 38.9573 57.2444 38.888C57.2444 38.8187 57.2551 38.7707 57.2764 38.744C57.2977 38.744 57.3591 38.7387 57.4604 38.728C57.5671 38.712 57.6844 38.68 57.8124 38.632C57.9404 38.5787 58.0444 38.496 58.1244 38.384L59.5164 36.488L58.4204 34.808C58.3511 34.7013 58.2791 34.5893 58.2044 34.472C58.1297 34.3493 58.0631 34.2693 58.0044 34.232C57.9671 34.2053 57.9111 34.184 57.8364 34.168C57.7671 34.152 57.6951 34.1413 57.6204 34.136C57.5511 34.1253 57.5004 34.12 57.4684 34.12C57.4577 34.12 57.4497 34.0987 57.4444 34.056C57.4391 34.0133 57.4391 33.968 57.4444 33.92C57.4497 33.872 57.4577 33.8427 57.4684 33.832C57.6604 33.8373 57.8631 33.8453 58.0764 33.856C58.2951 33.8667 58.5004 33.872 58.6924 33.872Z" fill="#EEDFCF"/>
</svg>
